<?xml version="1.0" encoding="utf-8"?>
<!-- Generator: Adobe Illustrator 19.1.0, SVG Export Plug-In . SVG Version: 6.00 Build 0)  -->
<svg version="1.1" id="Layer_1" xmlns="http://www.w3.org/2000/svg" xmlns:xlink="http://www.w3.org/1999/xlink" x="0px" y="0px"
	 viewBox="0 0 60 75" style="enable-background:new 0 0 60 75;" xml:space="preserve">
<style type="text/css">
	.st0{fill:#3761A3;}
</style>
<g>
	<g>
		<g>
			<g>
				<g>
					
						<rect x="21.8" y="42" transform="matrix(0.323 0.9464 -0.9464 0.323 63.4059 -4.0787)" class="st0" width="25.5" height="0.6"/>
					<g>
						<circle class="st0" cx="38.6" cy="54.3" r="1.4"/>
					</g>
				</g>
				<g>
					
						<rect x="27.3" y="38.3" transform="matrix(0.753 0.658 -0.658 0.753 35.2869 -16.8084)" class="st0" width="25.5" height="0.6"/>
					<g>
						<circle class="st0" cx="49.6" cy="46.9" r="1.4"/>
					</g>
				</g>
				<g>
					
						<rect x="30.2" y="32.4" transform="matrix(0.9811 0.1934 -0.1934 0.9811 7.1325 -7.6883)" class="st0" width="25.5" height="0.6"/>
					<g>
						<circle class="st0" cx="55.4" cy="35.1" r="1.4"/>
					</g>
				</g>
				<g>
					
						<rect x="42.2" y="13.4" transform="matrix(0.323 0.9464 -0.9464 0.323 53.4763 -22.5492)" class="st0" width="0.6" height="25.5"/>
					<g>
						<circle class="st0" cx="54.5" cy="22" r="1.4"/>
					</g>
				</g>
				<g>
					
						<rect x="38.5" y="7.9" transform="matrix(0.753 0.658 -0.658 0.753 23.1575 -20.4526)" class="st0" width="0.6" height="25.5"/>
					<g>
						<circle class="st0" cx="47.2" cy="11.1" r="1.4"/>
					</g>
				</g>
				<g>
					
						<rect x="32.6" y="5" transform="matrix(0.9811 0.1934 -0.1934 0.9811 4.0483 -6.0297)" class="st0" width="0.6" height="25.5"/>
					<g>
						<circle class="st0" cx="35.4" cy="5.3" r="1.4"/>
					</g>
				</g>
				<g>
					
						<rect x="13.6" y="17.8" transform="matrix(0.3229 0.9464 -0.9464 0.3229 35.0061 -12.6193)" class="st0" width="25.5" height="0.6"/>
					<g>
						<circle class="st0" cx="22.2" cy="6.2" r="1.4"/>
					</g>
				</g>
				<g>
					<rect x="8.1" y="21.5" transform="matrix(0.753 0.658 -0.658 0.753 19.5135 -8.3223)" class="st0" width="25.5" height="0.6"/>
					<g>
						<circle class="st0" cx="11.3" cy="13.5" r="1.4"/>
					</g>
				</g>
				<g>
					
						<rect x="5.2" y="27.4" transform="matrix(0.9811 0.1934 -0.1934 0.9811 5.7069 -2.9456)" class="st0" width="25.5" height="0.6"/>
					<g>
						<circle class="st0" cx="5.5" cy="25.3" r="1.4"/>
					</g>
				</g>
				<g>
					
						<rect x="18.1" y="21.6" transform="matrix(0.323 0.9464 -0.9464 0.323 44.9354 5.8512)" class="st0" width="0.6" height="25.5"/>
					<g>
						<circle class="st0" cx="6.4" cy="38.4" r="1.4"/>
					</g>
				</g>
				<g>
					
						<rect x="21.7" y="27.1" transform="matrix(0.753 0.658 -0.658 0.753 31.6437 -4.6781)" class="st0" width="0.6" height="25.5"/>
					<g>
						<circle class="st0" cx="13.7" cy="49.4" r="1.4"/>
					</g>
				</g>
			</g>
		</g>
	</g>
	<g>
		<g>
			<g>
				<g>
					<polygon class="st0" points="30.7,30.2 33.6,46.8 33.2,46.8 30.1,30.3 					"/>
					<g>
						<circle class="st0" cx="33.4" cy="46.7" r="1"/>
					</g>
				</g>
				<g>
					<polygon class="st0" points="30.7,30 41.5,42.9 41.2,43.2 30.2,30.4 					"/>
					<g>
						<circle class="st0" cx="41.3" cy="43" r="1"/>
					</g>
				</g>
				<g>
					<polygon class="st0" points="30.5,29.9 46.3,35.7 46.2,36.1 30.3,30.5 					"/>
					<g>
						<circle class="st0" cx="46.2" cy="35.9" r="1"/>
					</g>
				</g>
				<g>
					<polygon class="st0" points="30.4,29.9 47,27 47,27.4 30.5,30.5 					"/>
					<g>
						<circle class="st0" cx="46.9" cy="27.2" r="1"/>
					</g>
				</g>
				<g>
					<polygon class="st0" points="30.2,30 43.1,19.2 43.4,19.5 30.6,30.5 					"/>
					<g>
						<circle class="st0" cx="43.2" cy="19.4" r="1"/>
					</g>
				</g>
				<g>
					<polygon class="st0" points="30.1,30.1 35.9,14.3 36.3,14.4 30.7,30.3 					"/>
					<g>
						<circle class="st0" cx="36.1" cy="14.4" r="1"/>
					</g>
				</g>
				<g>
					<polygon class="st0" points="30.1,30.3 27.2,13.7 27.6,13.6 30.7,30.2 					"/>
					<g>
						<circle class="st0" cx="27.4" cy="13.7" r="1"/>
					</g>
				</g>
				<g>
					<polygon class="st0" points="30.2,30.4 19.4,17.5 19.7,17.3 30.7,30 					"/>
					<g>
						<circle class="st0" cx="19.6" cy="17.4" r="1"/>
					</g>
				</g>
				<g>
					<polygon class="st0" points="30.3,30.5 14.5,24.7 14.6,24.4 30.5,29.9 					"/>
					<g>
						<circle class="st0" cx="14.6" cy="24.6" r="1"/>
					</g>
				</g>
				<g>
					<polygon class="st0" points="30.5,30.5 13.9,33.4 13.8,33 30.4,29.9 					"/>
					<g>
						<circle class="st0" cx="13.9" cy="33.2" r="1"/>
					</g>
				</g>
				<g>
					<polygon class="st0" points="30.6,30.5 17.7,41.3 17.5,41 30.2,30 					"/>
					<g>
						<circle class="st0" cx="17.6" cy="41.1" r="1"/>
					</g>
				</g>
				<g>
					<polygon class="st0" points="30.7,30.3 24.9,46.1 24.6,46 30.1,30.1 					"/>
					<g>
						<circle class="st0" cx="24.8" cy="46" r="1"/>
					</g>
				</g>
			</g>
		</g>
	</g>
	<g>
		<g>
			<g>
				<g>
					<polygon class="st0" points="30.7,30.2 31.3,42.4 30.4,42.4 30.2,30.2 					"/>
					<g>
						<circle class="st0" cx="30.9" cy="42.3" r="1.3"/>
					</g>
				</g>
				<g>
					<polygon class="st0" points="30.7,30.1 37.3,40.3 36.5,40.8 30.2,30.4 					"/>
					<g>
						<circle class="st0" cx="36.9" cy="40.5" r="1.3"/>
					</g>
				</g>
				<g>
					<polygon class="st0" points="30.6,30 41.4,35.5 41,36.4 30.3,30.5 					"/>
					<g>
						<circle class="st0" cx="41.1" cy="35.9" r="1.3"/>
					</g>
				</g>
				<g>
					<polygon class="st0" points="30.4,29.9 42.6,29.4 42.6,30.3 30.5,30.5 					"/>
					<g>
						<circle class="st0" cx="42.6" cy="29.8" r="1.3"/>
					</g>
				</g>
				<g>
					<polygon class="st0" points="30.3,30 40.5,23.4 41,24.2 30.6,30.5 					"/>
					<g>
						<circle class="st0" cx="40.7" cy="23.8" r="1.3"/>
					</g>
				</g>
				<g>
					<polygon class="st0" points="30.2,30.1 35.8,19.3 36.6,19.7 30.7,30.4 					"/>
					<g>
						<circle class="st0" cx="36.2" cy="19.5" r="1.3"/>
					</g>
				</g>
				<g>
					<polygon class="st0" points="30.2,30.2 29.6,18.1 30.5,18 30.7,30.2 					"/>
					<g>
						<circle class="st0" cx="30.1" cy="18.1" r="1.3"/>
					</g>
				</g>
				<g>
					<polygon class="st0" points="30.2,30.4 23.6,20.1 24.4,19.6 30.7,30.1 					"/>
					<g>
						<circle class="st0" cx="24.1" cy="19.9" r="1.3"/>
					</g>
				</g>
				<g>
					<polygon class="st0" points="30.3,30.5 19.5,24.9 19.9,24.1 30.6,30 					"/>
					<g>
						<circle class="st0" cx="19.8" cy="24.5" r="1.3"/>
					</g>
				</g>
				<g>
					<polygon class="st0" points="30.5,30.5 18.3,31.1 18.3,30.2 30.4,29.9 					"/>
					<g>
						<circle class="st0" cx="18.4" cy="30.6" r="1.3"/>
					</g>
				</g>
				<g>
					<polygon class="st0" points="30.6,30.5 20.4,37 19.9,36.3 30.3,30 					"/>
					<g>
						<circle class="st0" cx="20.2" cy="36.6" r="1.3"/>
					</g>
				</g>
				<g>
					<polygon class="st0" points="30.7,30.4 25.1,41.2 24.3,40.7 30.2,30.1 					"/>
					<g>
						<circle class="st0" cx="24.8" cy="40.9" r="1.3"/>
					</g>
				</g>
			</g>
		</g>
	</g>
	<g>
		<circle class="st0" cx="30.6" cy="30.1" r="4.6"/>
	</g>
	<path class="st0" d="M31.3,30l-8.6,42c0,0.1-0.2,0.2-0.4,0.2c-0.2,0-0.3-0.2-0.3-0.3l8-42.1c0-0.2,0.4-0.4,0.7-0.3
		C31.1,29.5,31.3,29.7,31.3,30L31.3,30z"/>
</g>
</svg>
