<?xml version="1.0" encoding="utf-8"?>
<!-- Generator: Adobe Illustrator 19.1.0, SVG Export Plug-In . SVG Version: 6.00 Build 0)  -->
<svg version="1.1" id="Layer_1" xmlns="http://www.w3.org/2000/svg" xmlns:xlink="http://www.w3.org/1999/xlink" x="0px" y="0px"
	 viewBox="0 0 270 80" style="enable-background:new 0 0 270 80;" xml:space="preserve">
<style type="text/css">
	.st0{fill:#005AA9;}
	.st1{fill:#F5881F;}
	.st2{fill:none;stroke:#035BA8;stroke-width:2.833;stroke-linecap:round;stroke-miterlimit:10;}
	.st3{fill:none;stroke:#035BA8;stroke-width:2.6994;stroke-miterlimit:10;}
	.st4{fill:none;stroke:#035BA8;stroke-width:5.0708;stroke-linecap:round;stroke-miterlimit:10;}
	.st5{fill:none;stroke:#035BA8;stroke-width:5.3987;stroke-linecap:round;stroke-miterlimit:10;}
	.st6{fill:none;stroke:#035BA8;stroke-width:3.3998;stroke-miterlimit:10;}
	.st7{filter:url(#Adobe_OpacityMaskFilter);}
	.st8{clip-path:url(#SVGID_2_);fill:url(#SVGID_4_);}
	.st9{clip-path:url(#SVGID_2_);mask:url(#SVGID_3_);fill:url(#SVGID_5_);}
	.st10{fill:#999999;}
	.st11{filter:url(#Adobe_OpacityMaskFilter_1_);}
	.st12{clip-path:url(#SVGID_7_);fill:url(#SVGID_9_);}
	.st13{clip-path:url(#SVGID_7_);mask:url(#SVGID_8_);fill:url(#SVGID_10_);}
	.st14{fill:#FFFFFF;}
	.st15{fill:#FFFFFF;stroke:#000000;stroke-width:2.833;stroke-linecap:round;stroke-miterlimit:10;}
	.st16{fill:#FFFFFF;stroke:#000000;stroke-width:2.6994;stroke-miterlimit:10;}
	.st17{fill:#FFFFFF;stroke:#000000;stroke-width:5.0708;stroke-linecap:round;stroke-miterlimit:10;}
	.st18{fill:#FFFFFF;stroke:#000000;stroke-width:5.3987;stroke-linecap:round;stroke-miterlimit:10;}
	.st19{fill:#FFFFFF;stroke:#000000;stroke-width:3.3998;stroke-miterlimit:10;}
	.st20{fill:url(#SVGID_11_);}
	.st21{fill:none;stroke:#000000;stroke-width:2.833;stroke-linecap:round;stroke-miterlimit:10;}
	.st22{fill:none;stroke:#000000;stroke-width:2.6994;stroke-miterlimit:10;}
	.st23{stroke:#000000;stroke-width:5.0708;stroke-linecap:round;stroke-miterlimit:10;}
	.st24{stroke:#000000;stroke-width:5.3987;stroke-linecap:round;stroke-miterlimit:10;}
	.st25{fill:none;stroke:#000000;stroke-width:3.3998;stroke-miterlimit:10;}
	.st26{fill:url(#SVGID_12_);}
	.st27{fill:#1B2F7C;}
	.st28{fill:none;stroke:#035BA8;stroke-width:1.1286;stroke-linecap:round;stroke-miterlimit:10;}
	.st29{fill:none;stroke:#035BA8;stroke-width:2;stroke-miterlimit:10;}
	.st30{fill:none;stroke:#035BA8;stroke-width:2.1506;stroke-linecap:round;stroke-miterlimit:10;}
	.st31{fill:none;stroke:#035BA8;stroke-width:1.3544;stroke-miterlimit:10;}
	.st32{filter:url(#Adobe_OpacityMaskFilter_2_);}
	.st33{clip-path:url(#SVGID_14_);fill:url(#SVGID_16_);}
	.st34{clip-path:url(#SVGID_14_);mask:url(#SVGID_15_);fill:url(#SVGID_17_);}
	.st35{fill:#E1B3B3;}
	.st36{fill:#E5A876;}
</style>
<g>
	<g>
		<path class="st0" d="M101.4,28.9v7h0c-0.9-1.1-2.2-1.8-3.7-1.8c-3.2,0-5.2,2.6-5.2,5.7c0,3,2,5.7,5.2,5.7c1.5,0,2.8-0.6,3.7-1.8h0
			v1.5h1.8V28.9H101.4z M97.9,43.8c-2.3,0-3.5-2-3.5-4.1c0-2,1.4-3.9,3.5-3.9c2.3,0,3.6,1.7,3.6,3.9
			C101.5,41.9,100.2,43.8,97.9,43.8"/>
		<path class="st0" d="M83.7,28.9v7h0c-0.9-1.1-2.2-1.8-3.7-1.8c-3.2,0-5.2,2.6-5.2,5.7c0,3,2,5.7,5.2,5.7c1.5,0,2.8-0.6,3.7-1.8h0
			v1.5h1.8V28.9H83.7z M80.2,43.8c-2.3,0-3.5-2-3.5-4.1c0-2,1.4-3.9,3.5-3.9c2.3,0,3.6,1.7,3.6,3.9C83.8,41.9,82.5,43.8,80.2,43.8"
			/>
		<path class="st1" d="M131.5,34.7L131.5,34.7c0.9-1.1,2-1.8,3.5-1.8c3.3,0,4.1,2.4,4.1,5.2v7.1h-2v-6.7c0-1.9-0.2-3.7-2.5-3.7
			c-2.8,0-3,2.6-3,4.7v5.7h-2V33.2h2V34.7z"/>
		<path class="st1" d="M155,39.6c0,2.2,1.6,4,3.9,4c1.7,0,2.8-1,3.6-2.5l1.7,1c-1.1,2.1-3.1,3.3-5.5,3.3c-3.6,0-5.8-2.7-5.8-6.1
			c0-3.5,2.1-6.4,5.8-6.4c3.8,0,5.9,3.2,5.7,6.7H155z M162.2,37.9c-0.3-1.7-1.7-3.1-3.5-3.1c-1.8,0-3.4,1.4-3.6,3.1H162.2z"/>
		<polygon class="st1" points="179.6,45.2 177.6,45.2 177.6,35.1 176.3,35.1 176.3,33.2 177.6,33.2 177.6,29 179.6,29 179.6,33.2 
			182.4,33.2 181.7,35.1 179.6,35.1 		"/>
		<path class="st1" d="M187.3,28.8c0,0.8-0.7,1.4-1.4,1.4s-1.4-0.6-1.4-1.4c0-0.8,0.7-1.4,1.4-1.4S187.3,28,187.3,28.8 M186.8,45.2
			h-2V33.2h2V45.2z"/>
		<path class="st1" d="M216.6,45.2h-2v-1.6h-0.1c-1,1.3-2.4,2-4.1,2c-3.5,0-5.7-3-5.7-6.3c0-3.4,2.2-6.3,5.7-6.3
			c1.6,0,3.1,0.8,4.1,2h0.1v-1.7h2V45.2z M206.8,39.1c0,2.3,1.4,4.5,3.9,4.5c2.6,0,4-2.1,4-4.5c0-2.4-1.5-4.3-4-4.3
			C208.3,34.8,206.8,36.8,206.8,39.1"/>
		<path class="st1" d="M229.5,36.8L229.5,36.8c-1-1.2-2.2-2-3.8-2c-2.5,0-4.2,2-4.2,4.4c0,2.4,1.6,4.4,4.1,4.4
			c1.7,0,2.9-0.8,3.9-2.1h0.1v2.7c-1.2,0.8-2.4,1.2-3.8,1.2c-3.6,0-6.3-2.7-6.3-6.3c0-3.6,2.9-6.3,6.4-6.3c1.3,0,2.6,0.4,3.7,1.2
			V36.8z"/>
		<path class="st1" d="M235.4,28.8c0,0.8-0.7,1.4-1.4,1.4c-0.8,0-1.4-0.6-1.4-1.4c0-0.8,0.7-1.4,1.4-1.4
			C234.8,27.3,235.4,28,235.4,28.8 M235,45.2h-2V33.2h2V45.2z"/>
		<path class="st1" d="M238,39.2c0-3.5,2.8-6.3,6.3-6.3c3.5,0,6.3,2.8,6.3,6.3c0,3.5-2.8,6.3-6.3,6.3C240.8,45.5,238,42.7,238,39.2
			 M240,39.2c0,2.4,1.7,4.4,4.2,4.4c2.5,0,4.2-2,4.2-4.4c0-2.4-1.7-4.4-4.2-4.4C241.8,34.8,240,36.8,240,39.2"/>
		<path class="st1" d="M255.5,34.7L255.5,34.7c0.9-1.1,2-1.8,3.4-1.8c3.3,0,4.1,2.4,4.1,5.2v7.1h-2v-6.7c0-1.9-0.2-3.7-2.5-3.7
			c-2.8,0-3,2.6-3,4.7v5.7h-2V33.2h2V34.7z"/>
		<path class="st1" d="M199.7,33.2v1.7h-0.1c-1-1.3-2.4-2-4.1-2c-3.5,0-5.8,3-5.8,6.3c0,3.3,2.2,6.2,5.7,6.2c1.6,0,3.2-0.7,4.1-2
			h0.1v1.4c0,2.7-0.7,5-3.8,5c-0.1,0-0.2,0-0.4,0v1.9c0.1,0,0.3,0,0.4,0c1.8,0,3.5-0.7,4.6-2.1c1.2-1.6,1.2-3.2,1.2-5.1V33.2H199.7z
			 M195.8,43.6c-2.5,0-3.9-2.2-3.9-4.5c0-2.2,1.5-4.3,3.9-4.3c2.5,0,4,1.9,4,4.3C199.8,41.5,198.4,43.6,195.8,43.6"/>
		<rect x="123.4" y="29" class="st1" width="2.1" height="16.2"/>
		<path class="st1" d="M249.7,26.2c0,0-0.1,0.1-0.3,0.3c-0.2,0.2-0.5,0.4-0.9,0.7c-0.2,0.1-0.4,0.3-0.7,0.4
			c-0.2,0.2-0.5,0.3-0.7,0.4c-0.3,0.1-0.5,0.3-0.8,0.4c-0.3,0.1-0.6,0.3-0.9,0.4c-0.3,0.1-0.6,0.2-0.9,0.3c-0.3,0.1-0.6,0.2-0.9,0.2
			c-0.3,0.1-0.6,0.2-0.8,0.2c-0.3,0-0.5,0.1-0.8,0.1c-0.5,0.1-0.9,0.1-1.1,0.1c-0.3,0-0.4,0-0.4,0l-0.1-1c0,0,0.1,0,0.4-0.1
			c0.3,0,0.6-0.1,1.1-0.2c0.2-0.1,0.4-0.1,0.7-0.2c0.2,0,0.5-0.1,0.8-0.2c0.3-0.1,0.5-0.2,0.8-0.3c0.3-0.1,0.5-0.2,0.8-0.3
			c0.3-0.1,0.5-0.3,0.8-0.4c0.3-0.1,0.5-0.3,0.7-0.4c0.2-0.1,0.5-0.3,0.6-0.4c0.2-0.1,0.4-0.3,0.5-0.4c0.3-0.3,0.6-0.5,0.8-0.7
			c0.2-0.2,0.3-0.3,0.3-0.3L249.7,26.2z"/>
		<path class="st1" d="M171.8,38.2c-1.4-0.6-2.8-1-2.8-2.1c0-0.8,0.8-1.3,1.5-1.3c0.7,0,1.3,0.6,1.6,1.2l1.7-0.9
			c-0.5-1.2-1.8-2.2-3.2-2.2c-1.9,0-3.6,1.4-3.6,3.4c0,3.8,5.4,2.8,5.4,5.5c0,1.1-0.8,1.8-1.9,1.8c0,0-0.1,0-0.1,0v1.9
			c0,0,0.1,0,0.1,0c2.2,0,4-1.6,4-3.9C174.6,39.6,173.2,38.8,171.8,38.2"/>
		<polygon class="st1" points="146.6,45.5 152.2,33.2 150,33.2 146.4,41.3 142.9,33.2 140.5,33.2 146.2,45.5 		"/>
		<path class="st0" d="M64.4,40.2c0,2,1.4,3.6,3.5,3.6c1.6,0,2.6-0.9,3.3-2.2l1.6,0.9c-1,1.9-2.8,3-5,3c-3.2,0-5.3-2.5-5.3-5.5
			c0-3.2,1.9-5.8,5.2-5.8c3.5,0,5.3,2.9,5.1,6.1H64.4z M70.9,38.6c-0.3-1.6-1.6-2.8-3.2-2.8c-1.6,0-3,1.3-3.3,2.8H70.9z"/>
		<path class="st0" d="M107.8,40.2c0,2,1.4,3.6,3.5,3.6c1.6,0,2.6-0.9,3.3-2.2l1.6,0.9c-1,1.9-2.8,3-5,3c-3.2,0-5.3-2.5-5.3-5.5
			c0-3.2,1.9-5.8,5.2-5.8c3.5,0,5.3,2.9,5.1,6.1H107.8z M114.3,38.6c-0.3-1.6-1.6-2.8-3.2-2.8c-1.6,0-3,1.3-3.3,2.8H114.3z"/>
		<path class="st0" d="M56,37.9c2.7-0.2,4.3-2,4.3-4.5c0-3.7-3-4.5-6.3-4.5h-2.5v12.7l1.9,1.4V38h0.5l5.2,7.1h2.4L56,37.9z
			 M53.4,36.4v-5.8H54c2.3,0,4.4,0.3,4.4,2.9c0,2.5-2.2,2.9-4.4,2.9H53.4z"/>
	</g>
	<g>
		<line class="st28" x1="41" y1="37.7" x2="58.2" y2="50.7"/>
		<line class="st29" x1="40.3" y1="38.5" x2="57.9" y2="8"/>
		<path class="st0" d="M59.5,9c0.6-1,0.2-2.2-0.7-2.7c-1-0.6-2.2-0.2-2.7,0.7c-0.6,1-0.2,2.2,0.7,2.7C57.8,10.3,59,10,59.5,9"/>
		<line class="st29" x1="40.3" y1="38.5" x2="40.2" y2="3.2"/>
		<path class="st0" d="M42.2,3.3c0-1.1-0.9-2-2-2c-1.1,0-2,0.9-2,2c0,1.1,0.9,2,2,2C41.3,5.3,42.2,4.4,42.2,3.3"/>
		<line class="st29" x1="40.3" y1="38.5" x2="22.6" y2="8"/>
		<path class="st0" d="M24.3,7c-0.6-1-1.8-1.3-2.7-0.7c-1,0.6-1.3,1.8-0.7,2.7c0.6,1,1.8,1.3,2.7,0.7C24.6,9.2,24.9,8,24.3,7"/>
		<line class="st29" x1="40.3" y1="38.5" x2="9.6" y2="20.9"/>
		<path class="st0" d="M10.7,19.2c-1-0.6-2.2-0.2-2.7,0.7c-0.6,1-0.2,2.2,0.7,2.7c1,0.6,2.2,0.2,2.7-0.7C12,21,11.7,19.7,10.7,19.2"
			/>
		<line class="st29" x1="40.3" y1="38.5" x2="4.9" y2="38.5"/>
		<path class="st0" d="M5,36.5c-1.1,0-2,0.9-2,2c0,1.1,0.9,2,2,2c1.1,0,2-0.9,2-2C7,37.4,6.1,36.5,5,36.5"/>
		<line class="st29" x1="40.3" y1="38.5" x2="9.6" y2="56.2"/>
		<path class="st0" d="M8.7,54.4c-1,0.6-1.3,1.8-0.7,2.7c0.6,1,1.8,1.3,2.7,0.7c1-0.6,1.3-1.8,0.7-2.7C10.9,54.2,9.7,53.9,8.7,54.4"
			/>
		<line class="st29" x1="40.3" y1="38.5" x2="22.6" y2="69.1"/>
		<path class="st0" d="M20.9,68c-0.6,1-0.2,2.2,0.7,2.7c1,0.6,2.2,0.2,2.7-0.7c0.6-1,0.2-2.2-0.7-2.7C22.6,66.7,21.4,67.1,20.9,68"
			/>
		<polygon class="st0" points="39.9,38.3 49.6,17.2 50.1,17.4 40.7,38.7 		"/>
		<path class="st0" d="M51.1,17.9c0.3-0.7,0-1.5-0.7-1.8c-0.7-0.3-1.5,0-1.8,0.7c-0.3,0.7,0,1.5,0.7,1.8
			C50,18.9,50.8,18.6,51.1,17.9"/>
		<polygon class="st0" points="39.8,38.5 37.7,15.4 38.2,15.3 40.7,38.5 		"/>
		<path class="st0" d="M39.3,15.3c-0.1-0.7-0.7-1.3-1.5-1.2c-0.7,0.1-1.3,0.7-1.2,1.5c0.1,0.7,0.7,1.3,1.5,1.2
			C38.8,16.7,39.4,16,39.3,15.3"/>
		<polygon class="st0" points="39.9,38.8 26.4,19.7 26.9,19.4 40.6,38.2 		"/>
		<path class="st0" d="M27.8,18.8c-0.4-0.6-1.3-0.7-1.9-0.3c-0.6,0.4-0.7,1.3-0.3,1.9c0.4,0.6,1.3,0.7,1.9,0.3
			C28.1,20.3,28.2,19.4,27.8,18.8"/>
		<polygon class="st0" points="40.1,38.9 18.9,29.1 19.1,28.6 40.4,38.1 		"/>
		<path class="st0" d="M19.6,27.7c-0.7-0.3-1.5,0-1.8,0.7c-0.3,0.7,0,1.5,0.7,1.8c0.7,0.3,1.5,0,1.8-0.7
			C20.6,28.8,20.3,28,19.6,27.7"/>
		<polygon class="st0" points="40.3,38.9 17,41 16.9,40.5 40.2,38.1 		"/>
		<path class="st0" d="M16.9,39.4c-0.7,0.1-1.3,0.7-1.2,1.5c0.1,0.7,0.7,1.3,1.5,1.2c0.7-0.1,1.3-0.7,1.2-1.5
			C18.3,39.9,17.6,39.4,16.9,39.4"/>
		<polygon class="st0" points="40.5,38.9 21.3,52.3 21,51.9 40,38.1 		"/>
		<path class="st0" d="M20.5,51c-0.6,0.4-0.7,1.3-0.3,1.9c0.4,0.6,1.3,0.7,1.9,0.3c0.6-0.4,0.7-1.3,0.3-1.9
			C21.9,50.7,21.1,50.5,20.5,51"/>
		<polygon class="st0" points="40.7,38.7 30.7,59.9 30.3,59.7 39.9,38.3 		"/>
		<path class="st0" d="M29.3,59.2c-0.3,0.7,0,1.5,0.7,1.8c0.7,0.3,1.5,0,1.8-0.7c0.3-0.7,0-1.5-0.7-1.8
			C30.4,58.2,29.6,58.5,29.3,59.2"/>
		<polygon class="st0" points="39.9,38.4 44.3,22.2 45.5,22.5 40.6,38.6 		"/>
		<path class="st0" d="M46.6,22.9c0.3-1-0.3-2-1.3-2.3c-1-0.3-2,0.3-2.3,1.3c-0.3,1,0.3,2,1.3,2.3C45.3,24.5,46.4,23.9,46.6,22.9"/>
		<polygon class="st0" points="39.9,38.6 35.5,22.3 36.8,22 40.6,38.4 		"/>
		<path class="st0" d="M38,21.8c-0.2-1-1.3-1.6-2.2-1.3c-1,0.2-1.6,1.3-1.3,2.2c0.2,1,1.3,1.6,2.2,1.3C37.6,23.8,38.2,22.8,38,21.8"
			/>
		<polygon class="st0" points="40,38.8 28.1,26.8 29,26 40.5,38.2 		"/>
		<path class="st0" d="M29.9,25.2c-0.7-0.7-1.9-0.8-2.6,0c-0.7,0.7-0.8,1.9,0,2.6c0.7,0.7,1.9,0.8,2.6,0
			C30.6,27.1,30.6,25.9,29.9,25.2"/>
		<polygon class="st0" points="40.2,38.9 23.9,34.5 24.2,33.3 40.4,38.1 		"/>
		<path class="st0" d="M24.6,32.1c-1-0.3-2,0.3-2.3,1.3c-0.3,1,0.3,2,1.3,2.3c1,0.3,2-0.3,2.3-1.3C26.2,33.4,25.6,32.4,24.6,32.1"/>
		<polygon class="st0" points="40.4,38.9 24,43.2 23.7,42 40.2,38.1 		"/>
		<path class="st0" d="M23.5,40.8c-1,0.2-1.6,1.3-1.3,2.2c0.2,1,1.3,1.6,2.2,1.3c1-0.2,1.6-1.3,1.3-2.2
			C25.5,41.1,24.5,40.5,23.5,40.8"/>
		<polygon class="st0" points="40.5,38.8 28.5,50.7 27.7,49.8 40,38.2 		"/>
		<path class="st0" d="M26.9,48.8c-0.7,0.7-0.8,1.9,0,2.6c0.7,0.7,1.9,0.8,2.6,0c0.7-0.7,0.8-1.9,0-2.6
			C28.8,48.2,27.6,48.1,26.9,48.8"/>
		<polygon class="st0" points="40.6,38.6 36.2,54.9 35,54.6 39.9,38.4 		"/>
		<path class="st0" d="M33.8,54.1c-0.3,1,0.3,2,1.3,2.3c1,0.3,2-0.3,2.3-1.3c0.3-1-0.3-2-1.3-2.3C35.1,52.6,34.1,53.2,33.8,54.1"/>
		<path class="st0" d="M46.7,38.4c0-3.5-2.8-6.4-6.4-6.4c-3.5,0-6.4,2.8-6.4,6.4c0,3.5,2.8,6.4,6.4,6.4
			C43.9,44.8,46.7,41.9,46.7,38.4"/>
		<line class="st30" x1="40.3" y1="38.5" x2="36.6" y2="32.2"/>
		<line class="st30" x1="40.3" y1="38.5" x2="33.9" y2="34.8"/>
		<path class="st0" d="M57.7,51.4c0.4,0.3,0.9,0.2,1.2-0.2c0.3-0.4,0.2-0.9-0.2-1.2c-0.4-0.3-0.9-0.2-1.2,0.2
			C57.2,50.5,57.3,51.1,57.7,51.4"/>
		<line class="st31" x1="40.6" y1="38.4" x2="43.8" y2="50.3"/>
		<path class="st0" d="M42.6,50.6c0.2,0.7,0.9,1.1,1.5,0.9c0.7-0.2,1.1-0.9,0.9-1.5c-0.2-0.7-0.9-1.1-1.5-0.9
			C42.8,49.2,42.4,49.9,42.6,50.6"/>
		<g>
			<defs>
				<path id="SVGID_13_" d="M33.6,79.4c0,0.3,0.1,0.5,0.4,0.6c0.3,0,0.6-0.1,0.6-0.4l6.1-40.9l-1.2-0.3L33.6,79.4z"/>
			</defs>
			<clipPath id="SVGID_2_">
				<use xlink:href="#SVGID_13_"  style="overflow:visible;"/>
			</clipPath>
			<defs>
				<filter id="Adobe_OpacityMaskFilter" filterUnits="userSpaceOnUse" x="29" y="38.4" width="16.6" height="41.7">
					<feColorMatrix  type="matrix" values="1 0 0 0 0  0 1 0 0 0  0 0 1 0 0  0 0 0 1 0"/>
				</filter>
			</defs>
			<mask maskUnits="userSpaceOnUse" x="29" y="38.4" width="16.6" height="41.7" id="SVGID_3_">
				<g class="st7">
					
						<linearGradient id="SVGID_4_" gradientUnits="userSpaceOnUse" x1="-802.2751" y1="954.5426" x2="-801.8317" y2="954.5426" gradientTransform="matrix(0 -154.5047 -154.5047 0 147516.3906 -123848.4062)">
						<stop  offset="0" style="stop-color:#000000"/>
						<stop  offset="0.1794" style="stop-color:#4F4F4F"/>
						<stop  offset="0.3649" style="stop-color:#9A9A9A"/>
						<stop  offset="0.519" style="stop-color:#D0D0D0"/>
						<stop  offset="0.6334" style="stop-color:#F2F2F2"/>
						<stop  offset="0.6955" style="stop-color:#FFFFFF"/>
						<stop  offset="1" style="stop-color:#FFFFFF"/>
					</linearGradient>
					<rect x="29" y="38.4" class="st8" width="12.1" height="68.2"/>
				</g>
			</mask>
			
				<linearGradient id="SVGID_5_" gradientUnits="userSpaceOnUse" x1="-802.1028" y1="954.528" x2="-801.8317" y2="954.528" gradientTransform="matrix(0 -154.5047 -154.5047 0 147516.3906 -123848.4062)">
				<stop  offset="0" style="stop-color:#FFFFFF"/>
				<stop  offset="0.1794" style="stop-color:#B0CCE4"/>
				<stop  offset="0.3649" style="stop-color:#659CCB"/>
				<stop  offset="0.519" style="stop-color:#2F78B9"/>
				<stop  offset="0.6334" style="stop-color:#0D62AD"/>
				<stop  offset="0.6955" style="stop-color:#005AA9"/>
				<stop  offset="1" style="stop-color:#005AA9"/>
			</linearGradient>
			<polygon class="st9" points="33.5,80 29,38.4 41.1,38.4 45.6,80 			"/>
		</g>
	</g>
	<g>
		<g>
			<g>
				<path class="st1" d="M54,62.3v1.3h1.8v1H54v1.6h1.9v1h-3v-5.9h3v1H54z"/>
			</g>
			<g>
				<path class="st10" d="M58.2,61.3h1.6c1.7,0,2.8,1.3,2.8,2.9c0,1.6-1.2,2.9-2.8,2.9h-1.6V61.3z M59.3,66.1h0.2
					c1.4,0,1.9-0.8,1.9-1.9c0-1.3-0.7-1.9-1.9-1.9h-0.2V66.1z"/>
				<path class="st10" d="M64.7,61.3h1.1v3.3c0,0.7,0.1,1.7,1,1.7c1,0,1-1,1-1.7v-3.3h1.1v3.5c0,1.4-0.6,2.5-2.2,2.5
					c-1.6,0-2.2-1.1-2.2-2.5V61.3z"/>
				<path class="st10" d="M75.3,62.8c-0.3-0.4-0.8-0.6-1.3-0.6c-1.1,0-1.7,1-1.7,2c0,1,0.7,2,1.7,2c0.5,0,1-0.3,1.3-0.6v1.4
					c-0.4,0.2-0.9,0.3-1.3,0.3c-1.6,0-2.9-1.4-2.9-3c0-1.7,1.2-3.1,2.9-3.1c0.5,0,0.9,0.1,1.3,0.3V62.8z"/>
				<path class="st10" d="M78.8,65.9l-0.5,1.2h-1.2l2.3-6h0.9l2.2,6h-1.2l-0.5-1.2H78.8z M79.8,62.8L79.8,62.8L79.2,65h1.4
					L79.8,62.8z"/>
				<path class="st10" d="M88.3,62.8c-0.3-0.4-0.8-0.6-1.3-0.6c-1.1,0-1.7,1-1.7,2c0,1,0.7,2,1.7,2c0.5,0,1-0.3,1.3-0.6v1.4
					c-0.4,0.2-0.9,0.3-1.3,0.3c-1.6,0-2.9-1.4-2.9-3c0-1.7,1.2-3.1,2.9-3.1c0.5,0,0.9,0.1,1.3,0.3V62.8z"/>
				<path class="st10" d="M91.8,67.1h-1.1v-5.9h1.1V67.1z"/>
				<path class="st10" d="M96.8,67.3c-1.8,0-2.9-1.4-2.9-3.1c0-1.7,1.1-3.1,2.9-3.1c1.7,0,2.9,1.3,2.9,3.1
					C99.7,65.9,98.6,67.3,96.8,67.3z M96.8,62.3c-1.1,0-1.7,1-1.7,1.9c0,0.9,0.5,2,1.7,2c1.3,0,1.7-1.1,1.7-2
					C98.5,63.2,97.9,62.3,96.8,62.3z M97.9,59.8L96.7,61l-0.6-0.3l0.9-1.3L97.9,59.8z"/>
				<path class="st10" d="M101.8,61.1h0.8l3.1,4.1h0v-3.9h1.1v6H106l-3.1-4.1h0v4h-1.1V61.1z"/>
			</g>
		</g>
		<g>
			<g>
				<path class="st1" d="M124.8,67.1h-1.1v-4.9h-1.2v-1h3.5v1h-1.2V67.1z"/>
			</g>
			<g>
				<path class="st10" d="M129.1,62.3v1.3h1.8v1h-1.8v1.6h1.9v1h-3v-5.9h3v1H129.1z"/>
				<path class="st10" d="M137.2,62.8c-0.3-0.4-0.8-0.6-1.3-0.6c-1.1,0-1.7,1-1.7,2c0,1,0.7,2,1.7,2c0.5,0,1-0.3,1.3-0.6v1.4
					c-0.4,0.2-0.9,0.3-1.3,0.3c-1.6,0-2.9-1.4-2.9-3c0-1.7,1.2-3.1,2.9-3.1c0.5,0,0.9,0.1,1.3,0.3V62.8z"/>
				<path class="st10" d="M139.5,61.1h0.8l3.1,4.1h0v-3.9h1.1v6h-0.8l-3.1-4.1h0v4h-1.1V61.1z"/>
				<path class="st10" d="M149.6,67.3c-1.8,0-2.9-1.4-2.9-3.1c0-1.7,1.2-3.1,2.9-3.1c1.7,0,2.9,1.3,2.9,3.1
					C152.5,65.9,151.4,67.3,149.6,67.3z M149.6,62.3c-1.1,0-1.7,1-1.7,1.9c0,0.9,0.5,2,1.7,2c1.3,0,1.7-1.1,1.7-2
					C151.3,63.2,150.7,62.3,149.6,62.3z"/>
				<path class="st10" d="M155.7,66.1h1.6v1h-2.8v-5.9h1.1V66.1z"/>
				<path class="st10" d="M161.9,67.3c-1.8,0-2.9-1.4-2.9-3.1c0-1.7,1.1-3.1,2.9-3.1s2.9,1.3,2.9,3.1
					C164.8,65.9,163.7,67.3,161.9,67.3z M161.9,62.3c-1.1,0-1.7,1-1.7,1.9c0,0.9,0.5,2,1.7,2c1.3,0,1.7-1.1,1.7-2
					C163.6,63.2,162.9,62.3,161.9,62.3z"/>
				<path class="st10" d="M172,64v0.1c0,1.7-0.8,3.1-2.7,3.1c-1.7,0-2.8-1.4-2.8-3.1c0-1.7,1.1-3.1,2.9-3.1c1,0,1.9,0.5,2.3,1.4
					l-1,0.5c-0.2-0.5-0.7-0.9-1.3-0.9c-1.1,0-1.6,1.1-1.6,2.1c0,1,0.6,2.1,1.7,2.1c0.7,0,1.3-0.6,1.3-1.3h-1.2V64H172z"/>
				<path class="st10" d="M175.7,59.8l-1.2,1.2l-0.6-0.3l0.9-1.3L175.7,59.8z M175.3,67.1h-1.1v-5.9h1.1V67.1z"/>
				<path class="st10" d="M178.9,65.9l-0.5,1.2h-1.2l2.3-6h0.9l2.2,6h-1.2l-0.5-1.2H178.9z M179.9,62.8L179.9,62.8l-0.7,2.1h1.4
					L179.9,62.8z"/>
			</g>
		</g>
		<g>
			<g>
				<path class="st1" d="M199.3,67.1h-1.1v-5.9h1.1V67.1z"/>
			</g>
			<g>
				<path class="st10" d="M201.7,61.1h0.8l3.1,4.1h0v-3.9h1.1v6h-0.8l-3.1-4.1h0v4h-1.1V61.1z"/>
				<path class="st10" d="M209.1,61.1h0.8l3.1,4.1h0v-3.9h1.1v6h-0.8l-3.1-4.1h0v4h-1.1V61.1z"/>
				<path class="st10" d="M219.2,67.3c-1.8,0-2.9-1.4-2.9-3.1c0-1.7,1.1-3.1,2.9-3.1s2.9,1.3,2.9,3.1
					C222.1,65.9,221,67.3,219.2,67.3z M219.2,62.3c-1.1,0-1.7,1-1.7,1.9c0,0.9,0.5,2,1.7,2c1.3,0,1.7-1.1,1.7-2
					C220.9,63.2,220.3,62.3,219.2,62.3z"/>
				<path class="st10" d="M226.3,65.2L226.3,65.2l1.3-3.9h1.2l-2.3,6h-0.7l-2.2-6h1.2L226.3,65.2z"/>
				<path class="st10" d="M231,65.9l-0.5,1.2h-1.2l2.3-6h0.9l2.2,6h-1.2l-0.5-1.2H231z M232,62.8L232,62.8l-0.7,2.1h1.4L232,62.8z"
					/>
				<path class="st10" d="M240.5,62.8c-0.3-0.4-0.8-0.6-1.3-0.6c-1.1,0-1.7,1-1.7,2c0,1,0.7,2,1.7,2c0.5,0,1-0.3,1.3-0.6v1.4
					c-0.4,0.2-0.9,0.3-1.3,0.3c-1.6,0-2.9-1.4-2.9-3c0-1.7,1.2-3.1,2.9-3.1c0.5,0,0.9,0.1,1.3,0.3V62.8z"/>
				<path class="st10" d="M243.9,67.1h-1.1v-5.9h1.1V67.1z"/>
				<path class="st10" d="M248.9,67.3c-1.8,0-2.9-1.4-2.9-3.1c0-1.7,1.1-3.1,2.9-3.1c1.7,0,2.9,1.3,2.9,3.1
					C251.8,65.9,250.7,67.3,248.9,67.3z M248.9,62.3c-1.1,0-1.7,1-1.7,1.9c0,0.9,0.5,2,1.7,2c1.3,0,1.7-1.1,1.7-2
					C250.7,63.2,250,62.3,248.9,62.3z M250,59.8l-1.2,1.2l-0.6-0.3l0.9-1.3L250,59.8z"/>
				<path class="st10" d="M253.9,61.1h0.8l3.1,4.1h0v-3.9h1.1v6h-0.8l-3.1-4.1h0v4h-1.1V61.1z"/>
			</g>
		</g>
		<g>
			<path class="st10" d="M113.4,64.2c0-0.8,0.6-1.5,1.5-1.5c0.8,0,1.5,0.7,1.5,1.5c0,0.8-0.7,1.5-1.5,1.5
				C114,65.7,113.4,65,113.4,64.2z"/>
			<path class="st10" d="M188.6,64.2c0-0.8,0.6-1.5,1.5-1.5s1.5,0.7,1.5,1.5c0,0.8-0.7,1.5-1.5,1.5C189.3,65.7,188.6,65,188.6,64.2z
				"/>
		</g>
	</g>
</g>
</svg>
