<?xml version="1.0" encoding="utf-8"?>
<!-- Generator: Adobe Illustrator 19.1.0, SVG Export Plug-In . SVG Version: 6.00 Build 0)  -->
<svg version="1.1" id="Layer_1" xmlns="http://www.w3.org/2000/svg" xmlns:xlink="http://www.w3.org/1999/xlink" x="0px" y="0px"
	 viewBox="-35 257 540 280" style="enable-background:new -35 257 540 280;" xml:space="preserve">
<style type="text/css">
	.st0{clip-path:url(#SVGID_2_);fill:url(#SVGID_4_);}
	.st1{fill:#005AA9;}
	.st2{fill:#F5881F;}
	.st3{fill:none;stroke:#035BA8;stroke-width:2.833;stroke-linecap:round;stroke-miterlimit:10;}
	.st4{fill:none;stroke:#035BA8;stroke-width:2.6994;stroke-miterlimit:10;}
	.st5{fill:none;stroke:#035BA8;stroke-width:5.0708;stroke-linecap:round;stroke-miterlimit:10;}
	.st6{fill:none;stroke:#035BA8;stroke-width:5.3987;stroke-linecap:round;stroke-miterlimit:10;}
	.st7{fill:none;stroke:#035BA8;stroke-width:3.3998;stroke-miterlimit:10;}
	.st8{clip-path:url(#SVGID_6_);fill:url(#SVGID_7_);}
	.st9{fill:#999999;}
</style>
<g>
	<g>
		<defs>
			<path id="SVGID_1_" d="M49.4,536.5c-0.1,0.7,0.4,1.5,1.2,1.6c0.7,0.1,1.5-0.4,1.6-1.2l25.2-154.5c0.7-0.3,1.4-1,1.5-1.9l2.3-20.8
				l-4.5-0.6L49.4,536.5z"/>
		</defs>
		<clipPath id="SVGID_2_">
			<use xlink:href="#SVGID_1_"  style="overflow:visible;"/>
		</clipPath>
		
			<linearGradient id="SVGID_4_" gradientUnits="userSpaceOnUse" x1="-811.6644" y1="37.602" x2="-810.4995" y2="37.602" gradientTransform="matrix(0 -154.5047 154.5047 0 -5744.4346 -124866.8906)">
			<stop  offset="0" style="stop-color:#000000"/>
			<stop  offset="0.1794" style="stop-color:#4F4F4F"/>
			<stop  offset="0.3649" style="stop-color:#9A9A9A"/>
			<stop  offset="0.519" style="stop-color:#D0D0D0"/>
			<stop  offset="0.6334" style="stop-color:#F2F2F2"/>
			<stop  offset="0.6955" style="stop-color:#FFFFFF"/>
			<stop  offset="1" style="stop-color:#FFFFFF"/>
		</linearGradient>
		<rect x="49.3" y="359.1" class="st0" width="31.8" height="179.2"/>
	</g>
</g>
<g>
	<path class="st1" d="M204.3,353.8v12.5h-0.1c-1.6-2.1-4-3.2-6.6-3.2c-5.8,0-9.3,4.7-9.3,10.3c0,5.3,3.6,10.2,9.2,10.2
		c2.6,0,5-1.2,6.7-3.2h0.1v2.7h3.2v-29.1H204.3z M198,380.4c-4.1,0-6.3-3.6-6.3-7.3c0-3.7,2.5-6.9,6.3-6.9c4.1,0,6.5,3.1,6.5,7
		C204.4,376.9,202.2,380.4,198,380.4"/>
	<path class="st1" d="M172.5,353.8v12.5h-0.1c-1.6-2.1-4-3.2-6.6-3.2c-5.8,0-9.3,4.7-9.3,10.3c0,5.3,3.6,10.2,9.2,10.2
		c2.6,0,5-1.2,6.7-3.2h0.1v2.7h3.2v-29.1H172.5z M166.2,380.4c-4.1,0-6.3-3.6-6.3-7.3c0-3.7,2.5-6.9,6.3-6.9c4.1,0,6.5,3.1,6.5,7
		C172.6,376.9,170.4,380.4,166.2,380.4"/>
	<path class="st2" d="M258.3,364.1L258.3,364.1c1.6-2.1,3.6-3.1,6.2-3.1c5.9,0,7.3,4.3,7.3,9.3v12.7h-3.7v-12c0-3.5-0.3-6.6-4.5-6.6
		c-5,0-5.3,4.6-5.3,8.5v10.2h-3.7v-21.3h3.7V364.1z"/>
	<path class="st2" d="M300.4,373c0,4,2.8,7.1,7,7.1c3.1,0,5.1-1.9,6.5-4.4l3.1,1.8c-2.1,3.9-5.5,6-9.8,6c-6.4,0-10.5-4.9-10.5-11
		c0-6.3,3.7-11.5,10.4-11.5c6.9,0,10.5,5.7,10.2,12H300.4z M313.4,369.9c-0.5-3.1-3.1-5.5-6.3-5.5s-6.1,2.5-6.5,5.5H313.4z"/>
	<polygon class="st2" points="344.6,382.9 340.9,382.9 340.9,364.9 338.7,364.9 338.7,361.6 340.9,361.6 340.9,353.8 344.6,353.8 
		344.6,361.6 349.6,361.6 348.3,364.9 344.6,364.9 	"/>
	<path class="st2" d="M358.3,353.5c0,1.5-1.2,2.6-2.6,2.6c-1.4,0-2.6-1.2-2.6-2.6c0-1.4,1.2-2.6,2.6-2.6
		C357.1,350.9,358.3,352,358.3,353.5 M357.5,382.9h-3.7v-21.3h3.7V382.9z"/>
	<path class="st2" d="M410.9,382.9h-3.7V380h-0.1c-1.9,2.4-4.4,3.6-7.3,3.6c-6.3,0-10.3-5.3-10.3-11.2c0-6.1,3.9-11.3,10.3-11.3
		c2.9,0,5.5,1.4,7.3,3.7h0.1v-3h3.7V382.9z M393.3,372c0,4.2,2.4,8.2,7,8.2c4.7,0,7.1-3.8,7.1-8.1c0-4.3-2.7-7.7-7.2-7.7
		C396,364.3,393.3,367.9,393.3,372"/>
	<path class="st2" d="M434,367.8L434,367.8c-1.8-2.1-3.9-3.6-6.7-3.6c-4.4,0-7.5,3.7-7.5,8c0,4.2,2.9,8,7.3,8c3,0,5.2-1.4,7-3.7h0.1
		v4.9c-2.1,1.4-4.2,2.2-6.8,2.2c-6.5,0-11.4-4.8-11.4-11.3c0-6.4,5.1-11.3,11.4-11.3c2.3,0,4.7,0.7,6.6,2.1V367.8z"/>
	<path class="st2" d="M444.7,353.5c0,1.5-1.2,2.6-2.6,2.6c-1.4,0-2.6-1.2-2.6-2.6c0-1.4,1.2-2.6,2.6-2.6
		C443.4,350.9,444.7,352,444.7,353.5 M443.9,382.9h-3.7v-21.3h3.7V382.9z"/>
	<path class="st2" d="M449.3,372.2c0-6.3,4.9-11.3,11.2-11.3c6.3,0,11.2,5,11.2,11.3s-5,11.2-11.2,11.2
		C454.3,383.4,449.3,378.5,449.3,372.2 M453,372.2c0,4.4,3.1,8,7.6,8s7.6-3.6,7.6-8c0-4.3-3.1-8-7.6-8
		C456,364.3,453,367.8,453,372.2"/>
	<path class="st2" d="M480.6,364.1L480.6,364.1c1.6-2.1,3.6-3.1,6.2-3.1c5.9,0,7.3,4.3,7.3,9.3v12.7h-3.7v-12c0-3.5-0.3-6.6-4.5-6.6
		c-5,0-5.3,4.6-5.3,8.5v10.2h-3.7v-21.3h3.7V364.1z"/>
	<path class="st2" d="M380.6,361.6v3h-0.1c-1.8-2.3-4.3-3.7-7.3-3.7c-6.3,0-10.4,5.3-10.4,11.4c0,6,4,11.2,10.2,11.2
		c2.8,0,5.7-1.4,7.4-3.6h0.1v2.5c0,4.8-1.3,9-6.9,9c-0.2,0-0.4,0-0.6-0.1v3.3c0.2,0,0.4,0,0.7,0c3.1,0,6.3-1.3,8.3-3.8
		c2.2-2.8,2.2-5.8,2.2-9.2v-20.3h-3.6V361.6z M373.6,380.1c-4.5,0-7-4-7-8.2c0-4,2.7-7.6,7-7.6c4.5,0,7.2,3.5,7.2,7.7
		C380.8,376.3,378.3,380.1,373.6,380.1"/>
	<rect x="243.7" y="353.8" class="st2" width="3.8" height="29.1"/>
	<path class="st2" d="M470.2,348.9c0,0-0.2,0.2-0.6,0.4c-0.4,0.3-0.8,0.7-1.6,1.2c-0.3,0.2-0.7,0.5-1.2,0.7
		c-0.4,0.3-0.8,0.5-1.4,0.8c-0.5,0.2-0.9,0.5-1.5,0.7c-0.5,0.2-1,0.4-1.6,0.7c-0.5,0.2-1,0.4-1.6,0.5c-0.5,0.2-1,0.3-1.6,0.4
		c-0.5,0.1-1,0.3-1.5,0.3c-0.5,0.1-0.9,0.1-1.4,0.2c-0.8,0.1-1.6,0.1-2,0.2c-0.5,0-0.7,0.1-0.7,0.1l-0.1-1.8c0,0,0.3,0,0.7-0.1
		c0.4-0.1,1.2-0.1,1.9-0.3c0.4-0.1,0.8-0.2,1.3-0.3c0.4-0.1,0.8-0.2,1.4-0.4c0.4-0.2,0.9-0.3,1.5-0.5c0.4-0.2,0.9-0.4,1.5-0.6
		c0.4-0.2,0.9-0.5,1.4-0.7c0.4-0.2,0.8-0.5,1.3-0.8c0.4-0.3,0.8-0.5,1.2-0.8c0.3-0.3,0.6-0.5,0.9-0.7c0.6-0.4,1.2-0.9,1.5-1.3
		c0.3-0.3,0.5-0.5,0.5-0.5L470.2,348.9z"/>
	<path class="st2" d="M330.6,370.3c-2.5-1-4.9-1.8-4.9-3.8c0-1.4,1.4-2.4,2.6-2.4c1.4,0,2.4,1,2.9,2.2l3-1.6c-0.9-2.2-3.2-4-5.7-4
		c-3.5,0-6.4,2.4-6.4,6.1c0,6.7,9.6,5.1,9.6,9.8c0,2-1.5,3.2-3.5,3.2c-0.1,0-0.1,0-0.2,0v3.3c0.1,0,0.1,0,0.2,0c4,0,7.2-2.9,7.2-6.9
		C335.6,373,333.1,371.4,330.6,370.3"/>
	<polygon class="st2" points="285.4,383.4 295.5,361.6 291.4,361.6 285,375.9 278.6,361.6 274.5,361.6 284.7,383.4 	"/>
	<path class="st1" d="M137.9,373.9c0,3.6,2.6,6.5,6.3,6.5c2.8,0,4.6-1.7,5.9-4l2.8,1.6c-1.9,3.5-4.9,5.4-8.9,5.4
		c-5.8,0-9.4-4.4-9.4-9.9c0-5.8,3.3-10.5,9.4-10.5c6.2,0,9.5,5.1,9.2,10.9C153.1,373.9,137.9,373.9,137.9,373.9z M149.6,371.1
		c-0.4-2.8-2.8-5-5.7-5c-2.8,0-5.4,2.3-5.9,5H149.6z"/>
	<path class="st1" d="M215.7,373.9c0,3.6,2.6,6.5,6.3,6.5c2.8,0,4.6-1.7,5.9-4l2.8,1.6c-1.9,3.5-5,5.4-8.9,5.4
		c-5.8,0-9.4-4.4-9.4-9.9c0-5.8,3.3-10.5,9.4-10.5c6.2,0,9.5,5.1,9.2,10.9C231,373.9,215.7,373.9,215.7,373.9z M227.5,371.1
		c-0.4-2.8-2.8-5-5.7-5c-2.8,0-5.4,2.3-5.9,5H227.5z"/>
	<path class="st1" d="M122.8,369.8c4.8-0.4,7.7-3.6,7.7-8.1c0-6.6-5.4-8.1-11.3-8.1h-4.5v22.7l3.5,2.5V370h0.8l9.4,12.8h4.2
		L122.8,369.8z M118.2,367.2v-10.5h1c4.2,0,7.8,0.4,7.8,5.2c0,4.5-4,5.2-7.8,5.2H118.2z"/>
</g>
<g>
	<line class="st3" x1="80.8" y1="357.3" x2="126" y2="391.6"/>
	<line class="st4" x1="78.8" y1="359.5" x2="125.1" y2="279.2"/>
	<path class="st1" d="M129.5,282c1.5-2.5,0.6-5.8-1.9-7.2c-2.5-1.5-5.8-0.6-7.2,1.9s-0.6,5.8,1.9,7.2
		C124.9,285.5,128,284.6,129.5,282"/>
	<line class="st4" x1="78.8" y1="359.5" x2="78.7" y2="266.8"/>
	<path class="st1" d="M84,267.1c0-2.9-2.4-5.2-5.2-5.2c-2.9,0-5.2,2.4-5.2,5.2c0,2.9,2.4,5.2,5.2,5.2C81.7,272.3,84,270,84,267.1"/>
	<line class="st4" x1="78.8" y1="359.5" x2="32.4" y2="279.2"/>
	<path class="st1" d="M37.1,276.8c-1.5-2.5-4.7-3.3-7.2-1.9c-2.5,1.5-3.3,4.7-1.9,7.2c1.5,2.5,4.7,3.3,7.2,1.9
		C37.6,282.5,38.5,279.3,37.1,276.8"/>
	<line class="st4" x1="78.8" y1="359.5" x2="-1.6" y2="313.2"/>
	<path class="st1" d="M1.2,308.7c-2.5-1.5-5.8-0.6-7.2,2c-1.5,2.5-0.6,5.8,2,7.2c2.5,1.5,5.8,0.6,7.2-2
		C4.7,313.4,3.7,310.2,1.2,308.7"/>
	<line class="st4" x1="78.8" y1="359.5" x2="-14" y2="359.6"/>
	<path class="st1" d="M-13.8,354.3c-2.9,0-5.2,2.4-5.2,5.2c0,2.9,2.4,5.2,5.2,5.2c2.9,0,5.2-2.4,5.2-5.2
		C-8.5,356.6-10.8,354.3-13.8,354.3"/>
	<line class="st4" x1="78.8" y1="359.5" x2="-1.6" y2="405.9"/>
	<path class="st1" d="M-4,401.2c-2.5,1.5-3.3,4.7-1.9,7.2s4.7,3.3,7.2,1.9c2.5-1.5,3.3-4.7,1.9-7.2C1.7,400.7-1.5,399.8-4,401.2"/>
	<line class="st4" x1="78.8" y1="359.5" x2="32.4" y2="439.8"/>
	<path class="st1" d="M28,437c-1.5,2.5-0.6,5.8,1.9,7.2s5.8,0.6,7.2-1.9c1.5-2.5,0.6-5.8-1.9-7.2C32.6,433.7,29.3,434.5,28,437"/>
	<polygon class="st1" points="77.8,358.9 103.4,303.6 104.8,304.1 79.9,360 	"/>
	<path class="st1" d="M107.2,305.5c0.8-1.8,0-3.9-1.8-4.6c-1.8-0.8-3.9,0-4.6,1.8c-0.8,1.8,0,3.9,1.8,4.6
		C104.4,308,106.5,307.2,107.2,305.5"/>
	<polygon class="st1" points="77.7,359.6 72.2,298.7 73.6,298.6 80,359.4 	"/>
	<path class="st1" d="M76.3,298.5c-0.2-1.9-1.9-3.3-3.9-3.1c-1.9,0.2-3.3,1.9-3.1,3.9c0.2,1.9,1.9,3.3,3.9,3.1
		C75.2,302.1,76.5,300.3,76.3,298.5"/>
	<polygon class="st1" points="77.9,360.1 42.5,310.1 43.7,309.2 79.8,358.7 	"/>
	<path class="st1" d="M46.1,307.8c-1.2-1.6-3.3-1.9-4.9-0.8c-1.6,1.2-1.9,3.3-0.8,4.9c1.2,1.6,3.3,1.9,4.9,0.8
		C46.8,311.5,47.2,309.3,46.1,307.8"/>
	<polygon class="st1" points="78.4,360.5 22.7,334.8 23.3,333.5 79.4,358.4 	"/>
	<path class="st1" d="M24.5,331c-1.8-0.8-3.9,0-4.6,1.8c-0.8,1.8,0,3.9,1.8,4.6c1.8,0.8,3.9,0,4.6-1.8C27,333.9,26.3,331.8,24.5,331
		"/>
	<polygon class="st1" points="79,360.6 17.7,366.2 17.6,364.7 78.7,358.3 	"/>
	<path class="st1" d="M17.5,361.9c-1.9,0.2-3.3,1.9-3.1,3.9c0.2,1.9,1.9,3.3,3.9,3.1c1.9-0.2,3.3-1.9,3.1-3.9
		C21.2,363.1,19.5,361.8,17.5,361.9"/>
	<polygon class="st1" points="79.6,360.4 29.1,395.7 28.4,394.5 78.2,358.5 	"/>
	<path class="st1" d="M26.8,392.2c-1.6,1.2-2,3.3-0.8,4.9s3.3,2,4.9,0.8c1.6-1.2,2-3.3,0.8-4.9C30.6,391.4,28.5,391.1,26.8,392.2"/>
	<polygon class="st1" points="79.9,360 53.8,415.7 52.6,415 77.8,358.9 	"/>
	<path class="st1" d="M50.2,413.7c-0.8,1.8,0,3.9,1.7,4.6c1.8,0.8,3.9,0,4.6-1.7c0.8-1.8,0-3.9-1.7-4.6
		C53,411.2,50.9,412,50.2,413.7"/>
	<polygon class="st1" points="77.9,359.1 89.4,316.6 92.7,317.5 79.9,359.8 	"/>
	<path class="st1" d="M95.6,318.5c0.7-2.6-0.7-5.2-3.3-6s-5.2,0.7-6,3.3c-0.7,2.6,0.7,5.2,3.3,6S94.9,321.2,95.6,318.5"/>
	<polygon class="st1" points="77.9,359.7 66.5,317 69.7,316.1 79.9,359.3 	"/>
	<path class="st1" d="M72.9,315.6c-0.6-2.6-3.3-4.2-5.9-3.6c-2.6,0.6-4.2,3.2-3.6,5.9c0.6,2.6,3.2,4.2,5.9,3.6
		S73.5,318.2,72.9,315.6"/>
	<polygon class="st1" points="78.1,360.2 46.8,328.8 49.2,326.5 79.6,358.7 	"/>
	<path class="st1" d="M51.7,324.4c-1.9-1.9-4.9-2-6.9-0.1c-1.9,1.9-2,4.9-0.1,6.9c1.9,1.9,4.9,2,6.9,0.1
		C53.5,329.4,53.6,326.4,51.7,324.4"/>
	<polygon class="st1" points="78.6,360.4 35.7,348.9 36.7,345.8 79.2,358.5 	"/>
	<path class="st1" d="M37.8,342.7c-2.6-0.7-5.2,0.7-6,3.3c-0.7,2.6,0.7,5.2,3.3,6s5.2-0.7,6-3.3C41.9,346.2,40.3,343.5,37.8,342.7"
		/>
	<polygon class="st1" points="79.2,360.4 36.3,371.9 35.4,368.6 78.6,358.4 	"/>
	<path class="st1" d="M34.9,365.4c-2.6,0.6-4.2,3.2-3.6,5.9c0.6,2.6,3.2,4.2,5.9,3.6c2.6-0.6,4.2-3.2,3.6-5.9
		C40.1,366.4,37.5,364.8,34.9,365.4"/>
	<polygon class="st1" points="79.6,360.2 48.1,391.5 45.8,389.1 78.2,358.7 	"/>
	<path class="st1" d="M43.7,386.7c-1.9,1.9-2,4.9-0.1,6.9c1.9,1.9,4.9,2,6.9,0.1c1.9-1.9,2-4.9,0.1-6.9
		C48.7,384.8,45.7,384.8,43.7,386.7"/>
	<polygon class="st1" points="79.9,359.8 68.2,402.6 64.9,401.6 77.9,359.1 	"/>
	<path class="st1" d="M62,400.6c-0.7,2.6,0.7,5.2,3.3,6.1c2.6,0.7,5.2-0.7,6.1-3.3c0.7-2.6-0.7-5.2-3.3-6.1
		C65.5,396.5,62.7,398,62,400.6"/>
	<path class="st1" d="M95.8,359.1c0-9.2-7.5-16.7-16.7-16.7s-16.7,7.5-16.7,16.7c0,9.2,7.5,16.7,16.7,16.7
		C88.4,375.9,95.8,368.5,95.8,359.1"/>
	<line class="st5" x1="78.8" y1="359.5" x2="83.5" y2="375.7"/>
	<line class="st5" x1="78.8" y1="359.5" x2="91.1" y2="371.4"/>
	<line class="st5" x1="78.8" y1="359.5" x2="95.5" y2="364"/>
	<line class="st5" x1="78.8" y1="359.5" x2="95.7" y2="355.3"/>
	<line class="st5" x1="78.8" y1="359.5" x2="91.4" y2="347.6"/>
	<line class="st5" x1="78.8" y1="359.5" x2="84" y2="343.1"/>
	<line class="st5" x1="78.8" y1="359.5" x2="75.3" y2="343"/>
	<line class="st5" x1="78.8" y1="359.5" x2="67.7" y2="347.3"/>
	<line class="st5" x1="78.8" y1="359.5" x2="63.2" y2="354.8"/>
	<line class="st5" x1="78.8" y1="359.5" x2="63" y2="363.4"/>
	<line class="st5" x1="78.8" y1="359.5" x2="67.2" y2="371.1"/>
	<line class="st6" x1="78.8" y1="359.5" x2="78.7" y2="378.3"/>
	<line class="st6" x1="78.8" y1="359.5" x2="88.2" y2="375.8"/>
	<line class="st6" x1="78.8" y1="359.5" x2="95.2" y2="368.8"/>
	<line class="st6" x1="78.8" y1="359.5" x2="97.7" y2="359.4"/>
	<line class="st6" x1="78.8" y1="359.5" x2="95.2" y2="349.8"/>
	<line class="st6" x1="78.8" y1="359.5" x2="88.2" y2="342.9"/>
	<line class="st6" x1="78.8" y1="359.5" x2="78.7" y2="340.4"/>
	<line class="st6" x1="78.8" y1="359.5" x2="69.2" y2="342.9"/>
	<line class="st6" x1="78.8" y1="359.5" x2="62.3" y2="349.8"/>
	<line class="st6" x1="78.8" y1="359.5" x2="59.8" y2="359.4"/>
	<line class="st6" x1="78.8" y1="359.5" x2="62.3" y2="368.8"/>
	<line class="st6" x1="69.2" y1="375.8" x2="78.8" y2="359.5"/>
	<path class="st1" d="M124.6,393.3c1,0.7,2.4,0.5,3.2-0.4c0.7-1,0.5-2.4-0.4-3.2c-1-0.7-2.4-0.5-3.2,0.4
		C123.4,391.1,123.5,392.5,124.6,393.3"/>
	<line class="st7" x1="79.7" y1="359" x2="88.3" y2="390.5"/>
	<path class="st1" d="M76.5,360.1c-0.5-1.8,0.5-3.6,2.3-4.1s3.6,0.5,4.1,2.3s-0.5,3.6-2.3,4.1C78.8,362.9,77.1,361.9,76.5,360.1"/>
	<path class="st1" d="M85,391.3c0.5,1.8,2.3,2.8,4.1,2.3s2.8-2.3,2.3-4.1c-0.5-1.8-2.3-2.8-4.1-2.3C85.7,387.7,84.6,389.5,85,391.3"
		/>
	<line class="st4" x1="130.2" y1="342.4" x2="81.3" y2="355.4"/>
	<path class="st1" d="M129.5,339.9c1.4-0.4,2.8,0.4,3.2,1.9c0.4,1.4-0.4,2.8-1.9,3.2c-1.4,0.4-2.8-0.4-3.2-1.9
		C127.2,341.7,128,340.2,129.5,339.9"/>
	<path class="st1" d="M80.7,352.9c-1.4,0.4-2.2,1.8-1.9,3.2c0.4,1.4,1.8,2.2,3.2,1.9c1.4-0.4,2.2-1.8,1.9-3.2
		C83.6,353.3,82.2,352.4,80.7,352.9"/>
	<g>
		<g>
			<defs>
				<path id="SVGID_5_" d="M49.4,536.5c-0.1,0.7,0.4,1.5,1.2,1.6c0.7,0.1,1.5-0.4,1.6-1.2l25.2-154.5c0.7-0.3,1.4-1,1.5-1.9
					l2.3-20.8l-4.5-0.6L49.4,536.5z"/>
			</defs>
			<clipPath id="SVGID_6_">
				<use xlink:href="#SVGID_5_"  style="overflow:visible;"/>
			</clipPath>
			
				<linearGradient id="SVGID_7_" gradientUnits="userSpaceOnUse" x1="-811.6644" y1="37.602" x2="-810.4995" y2="37.602" gradientTransform="matrix(0 -154.5047 154.5047 0 -5744.4346 -124866.8906)">
				<stop  offset="0" style="stop-color:#FFFFFF"/>
				<stop  offset="0.1794" style="stop-color:#B0CCE4"/>
				<stop  offset="0.3649" style="stop-color:#659CCB"/>
				<stop  offset="0.519" style="stop-color:#2F78B9"/>
				<stop  offset="0.6334" style="stop-color:#0D62AD"/>
				<stop  offset="0.6955" style="stop-color:#005AA9"/>
				<stop  offset="1" style="stop-color:#005AA9"/>
			</linearGradient>
			<rect x="49.3" y="359.1" class="st8" width="31.8" height="179.2"/>
		</g>
	</g>
</g>
<g>
	<g>
		<g>
			<path class="st2" d="M116.8,406.7v2.4h3.3v1.8h-3.3v2.9h3.5v1.8h-5.5v-10.8h5.5v1.8h-3.5V406.7z"/>
		</g>
		<g>
			<path class="st9" d="M124.6,404.8h3c3.1,0,5.2,2.3,5.2,5.4c0,3-2.1,5.3-5.2,5.3h-3V404.8z M126.7,413.8h0.3
				c2.6,0,3.6-1.5,3.6-3.6c0-2.3-1.2-3.6-3.6-3.6h-0.3V413.8z"/>
			<path class="st9" d="M136.6,404.8h2.1v6.1c0,1.4,0.1,3.2,1.9,3.2s1.9-1.9,1.9-3.2v-6.1h2.1v6.5c0,2.6-1.2,4.6-4,4.6
				c-2.9,0-4-2-4-4.6V404.8z"/>
			<path class="st9" d="M156.2,407.7c-0.6-0.7-1.5-1.2-2.4-1.2c-2,0-3.1,1.9-3.1,3.7s1.2,3.7,3.1,3.7c0.9,0,1.8-0.4,2.4-1.2v2.5
				c-0.8,0.4-1.6,0.6-2.4,0.6c-3,0-5.2-2.6-5.2-5.5c0-3,2.2-5.8,5.3-5.8c0.8,0,1.7,0.2,2.4,0.6v2.5H156.2z"/>
			<path class="st9" d="M162.6,413.4l-0.8,2.3h-2.2l4.2-11.1h1.7l4,11h-2.2l-0.8-2.3h-3.8V413.4z M164.5,407.7L164.5,407.7l-1.3,3.9
				h2.5L164.5,407.7z"/>
			<path class="st9" d="M180.1,407.7c-0.6-0.7-1.5-1.2-2.4-1.2c-2,0-3.1,1.9-3.1,3.7s1.2,3.7,3.1,3.7c0.9,0,1.8-0.4,2.4-1.2v2.5
				c-0.8,0.4-1.6,0.6-2.4,0.6c-3,0-5.2-2.6-5.2-5.5c0-3,2.2-5.8,5.3-5.8c0.8,0,1.7,0.2,2.4,0.6v2.5H180.1z"/>
			<path class="st9" d="M186.4,415.6h-2.1v-10.8h2.1V415.6z"/>
			<path class="st9" d="M195.6,415.9c-3.2,0-5.3-2.5-5.3-5.7c0-3.2,2.1-5.7,5.3-5.7s5.3,2.4,5.3,5.7
				C201,413.4,198.9,415.9,195.6,415.9z M195.6,406.6c-2,0-3.1,1.8-3.1,3.5s0.8,3.7,3.1,3.7s3.1-2.1,3.1-3.7
				C198.8,408.3,197.6,406.6,195.6,406.6z M197.6,402.2l-2.2,2.1l-1-0.6l1.7-2.4L197.6,402.2z"/>
			<path class="st9" d="M204.8,404.6h1.5l5.7,7.5l0,0v-7.2h2.1v11h-1.5l-5.7-7.5l0,0v7.3h-2.1V404.6z"/>
		</g>
	</g>
	<g>
		<g>
			<path class="st2" d="M247.2,415.6h-2.1v-8.9h-2.2v-1.8h6.5v1.8h-2.2V415.6z"/>
		</g>
		<g>
			<path class="st9" d="M255.1,406.7v2.4h3.3v1.8h-3.3v2.9h3.5v1.8H253v-10.8h5.5v1.8h-3.5V406.7z"/>
			<path class="st9" d="M270,407.7c-0.6-0.7-1.5-1.2-2.4-1.2c-2,0-3.1,1.9-3.1,3.7s1.2,3.7,3.1,3.7c0.9,0,1.8-0.4,2.4-1.2v2.5
				c-0.8,0.4-1.6,0.6-2.4,0.6c-3,0-5.2-2.6-5.2-5.5c0-3,2.2-5.8,5.3-5.8c0.8,0,1.7,0.2,2.4,0.6v2.5H270z"/>
			<path class="st9" d="M274.2,404.6h1.5l5.7,7.5l0,0v-7.2h2.1v11H282l-5.7-7.5l0,0v7.3h-2.1V404.6z"/>
			<path class="st9" d="M292.8,415.9c-3.2,0-5.3-2.5-5.3-5.7c0-3.2,2.1-5.7,5.3-5.7s5.3,2.4,5.3,5.7
				C298.1,413.4,296.1,415.9,292.8,415.9z M292.8,406.6c-2,0-3.1,1.8-3.1,3.5s0.8,3.7,3.1,3.7s3.1-2.1,3.1-3.7
				C295.9,408.3,294.7,406.6,292.8,406.6z"/>
			<path class="st9" d="M304.1,413.8h2.9v1.8h-5v-10.8h2.1V413.8z"/>
			<path class="st9" d="M315.4,415.9c-3.2,0-5.3-2.5-5.3-5.7c0-3.2,2.1-5.7,5.3-5.7s5.3,2.4,5.3,5.7
				C320.7,413.4,318.7,415.9,315.4,415.9z M315.4,406.6c-2,0-3.1,1.8-3.1,3.5s0.8,3.7,3.1,3.7c2.3,0,3.1-2.1,3.1-3.7
				C318.5,408.3,317.3,406.6,315.4,406.6z"/>
			<path class="st9" d="M334.1,409.9v0.3c0,3-1.6,5.8-4.9,5.8c-3.1,0-5.1-2.6-5.1-5.7s2.1-5.8,5.2-5.8c1.8,0,3.5,0.9,4.3,2.6l-1.9,1
				c-0.4-0.9-1.4-1.7-2.4-1.7c-2,0-3,2.1-3,3.9s1,3.8,3,3.8c1.4,0,2.4-1.2,2.4-2.4h-2.2v-1.7h4.6V409.9z"/>
			<path class="st9" d="M340.8,402.2l-2.2,2.1l-1-0.6l1.7-2.4L340.8,402.2z M340.1,415.6H338v-10.8h2.1V415.6z"/>
			<path class="st9" d="M346.6,413.4l-0.8,2.3h-2.2l4.2-11.1h1.7l4.1,11.1h-2.2l-0.8-2.3H346.6z M348.4,407.7L348.4,407.7l-1.3,3.9
				h2.5L348.4,407.7z"/>
		</g>
	</g>
	<g>
		<g>
			<path class="st2" d="M384.2,415.6h-2.1v-10.8h2.1V415.6z"/>
		</g>
		<g>
			<path class="st9" d="M388.6,404.6h1.5l5.7,7.5l0,0v-7.2h2.1v11h-1.4l-5.7-7.5l0,0v7.3h-2.1v-11.1H388.6z"/>
			<path class="st9" d="M402.3,404.6h1.5l5.7,7.5l0,0v-7.2h2.1v11h-1.5l-5.7-7.5l0,0v7.3h-2.1V404.6z"/>
			<path class="st9" d="M420.8,415.9c-3.2,0-5.3-2.5-5.3-5.7c0-3.2,2.1-5.7,5.3-5.7s5.3,2.4,5.3,5.7
				C426.2,413.4,424.1,415.9,420.8,415.9z M420.8,406.6c-2,0-3.1,1.8-3.1,3.5s0.8,3.7,3.1,3.7c2.3,0,3.1-2.1,3.1-3.7
				C424,408.3,422.8,406.6,420.8,406.6z"/>
			<path class="st9" d="M433.9,412.1L433.9,412.1l2.4-7.2h2.3l-4.2,11.1h-1.3l-4.1-11.1h2.3L433.9,412.1z"/>
			<path class="st9" d="M442.5,413.4l-0.8,2.3h-2.3l4.2-11.1h1.7l4.1,11.1h-2.2l-0.8-2.3H442.5z M444.3,407.7L444.3,407.7l-1.3,3.9
				h2.5L444.3,407.7z"/>
			<path class="st9" d="M460,407.7c-0.6-0.7-1.5-1.2-2.4-1.2c-2,0-3.1,1.9-3.1,3.7s1.2,3.7,3.1,3.7c0.9,0,1.8-0.4,2.4-1.2v2.5
				c-0.8,0.4-1.6,0.6-2.4,0.6c-3,0-5.2-2.6-5.2-5.5c0-3,2.2-5.8,5.3-5.8c0.8,0,1.7,0.2,2.4,0.6v2.5H460z"/>
			<path class="st9" d="M466.4,415.6h-2.1v-10.8h2.1V415.6z"/>
			<path class="st9" d="M475.6,415.9c-3.2,0-5.3-2.5-5.3-5.7c0-3.2,2.1-5.7,5.3-5.7s5.3,2.4,5.3,5.7
				C480.9,413.4,478.8,415.9,475.6,415.9z M475.6,406.6c-2,0-3.1,1.8-3.1,3.5s0.8,3.7,3.1,3.7s3.1-2.1,3.1-3.7
				C478.7,408.3,477.6,406.6,475.6,406.6z M477.6,402.2l-2.2,2.1l-1-0.6l1.7-2.4L477.6,402.2z"/>
			<path class="st9" d="M484.8,404.6h1.5l5.7,7.5l0,0v-7.2h2.1v11h-1.5l-5.7-7.5l0,0v7.3h-2.1V404.6z"/>
		</g>
	</g>
	<g>
		<path class="st9" d="M226.2,410.2c0-1.5,1.2-2.7,2.7-2.7c1.5,0,2.7,1.2,2.7,2.7c0,1.5-1.3,2.7-2.7,2.7
			C227.3,412.8,226.2,411.7,226.2,410.2z"/>
		<path class="st9" d="M364.6,410.2c0-1.5,1.2-2.7,2.7-2.7c1.5,0,2.7,1.2,2.7,2.7c0,1.5-1.3,2.7-2.7,2.7
			C365.8,412.8,364.6,411.7,364.6,410.2z"/>
	</g>
</g>
</svg>
