<?xml version="1.0" encoding="UTF-8" standalone="no"?>
<svg width="207px" height="33px" viewBox="0 0 207 33" version="1.1" xmlns="http://www.w3.org/2000/svg" xmlns:xlink="http://www.w3.org/1999/xlink" xmlns:sketch="http://www.bohemiancoding.com/sketch/ns">
    <!-- Generator: Sketch 3.4.2 (15857) - http://www.bohemiancoding.com/sketch -->
    <title>Imported Layers</title>
    <desc>Created with Sketch.</desc>
    <defs></defs>
    <g id="Welcome" stroke="none" stroke-width="1" fill="none" fill-rule="evenodd" sketch:type="MSPage">
        <g id="Mobile-Portrait" sketch:type="MSArtboardGroup" transform="translate(-11.000000, -8.000000)">
            <g id="Imported-Layers" sketch:type="MSLayerGroup" transform="translate(10.500000, 8.000000)">
                <path d="M35.2284903,18.4969795 C35.2486194,20.081729 36.4751484,21.3552106 38.2760258,21.3552106 C39.6193032,21.3552106 40.4915613,20.6091554 41.1034839,19.5876528 L42.4494452,20.2991226 C41.5597419,21.8295238 40.0554323,22.7028035 38.1579355,22.7028035 C35.3854968,22.7028035 33.6060903,20.7549079 33.6060903,18.2956434 C33.6060903,15.7647378 35.2083613,13.6698545 38.1163355,13.6698545 C41.1034839,13.6698545 42.6869677,15.9450757 42.5286194,18.4969795 L35.2284903,18.4969795 L35.2284903,18.4969795 Z M40.8673032,17.2580833 C40.6499097,16.0191871 39.5226839,15.0174475 38.1364645,15.0174475 C36.7717161,15.0174475 35.504929,16.0191871 35.3076645,17.2580833 L40.8673032,17.2580833 L40.8673032,17.2580833 Z" id="Fill-1" fill="#36588F" sketch:type="MSShapeGroup"></path>
                <path d="M72.7194839,18.4969795 C72.738271,20.081729 73.9648,21.3552106 75.7670194,21.3552106 C77.1116387,21.3552106 77.9812129,20.6091554 78.5944774,19.5876528 L79.9404387,20.2991226 C79.0507355,21.8295238 77.5464258,22.7028035 75.6475871,22.7028035 C72.8778323,22.7028035 71.0957419,20.7549079 71.0957419,18.2956434 C71.0957419,15.7647378 72.6993548,13.6698545 75.608671,13.6698545 C78.5944774,13.6698545 80.1779613,15.9450757 80.0209548,18.4969795 L72.7194839,18.4969795 L72.7194839,18.4969795 Z M78.3582968,17.2580833 C78.1409032,16.0191871 77.0123355,15.0174475 75.6274581,15.0174475 C74.2627097,15.0174475 72.9972645,16.0191871 72.7986581,17.2580833 L78.3582968,17.2580833 L78.3582968,17.2580833 Z" id="Fill-2" fill="#36588F" sketch:type="MSShapeGroup"></path>
                <path d="M27.9605677,16.6800141 C30.2566194,16.5070874 31.7005419,15.1039109 31.7005419,13.1177243 C31.7005419,10.2076152 29.0690065,9.55666979 26.2388645,9.55666979 L24.0823742,9.55666979 L24.0823742,19.6222381 L25.7450323,20.7302041 L25.7450323,16.7998276 L26.1596903,16.7998276 L30.6699355,22.4656469 L32.7083355,22.4656469 L27.9605677,16.6800141 L27.9605677,16.6800141 Z M25.7450323,15.5312868 L25.7450323,10.8919109 L26.2388645,10.8919109 C28.2383484,10.8919109 30.0378839,11.0981877 30.0378839,13.2214804 C30.0378839,15.2237243 28.1390452,15.5312868 26.2589935,15.5312868 L25.7450323,15.5312868 L25.7450323,15.5312868 Z" id="Fill-3" fill="#36588F" sketch:type="MSShapeGroup"></path>
                <path d="M67.1866839,9.58754956 L67.1866839,15.1273795 L67.1477677,15.1273795 C66.3962839,14.217044 65.208671,13.6698545 63.9620129,13.6698545 C61.172129,13.6698545 59.4893419,15.7647378 59.4893419,18.2042393 C59.4893419,20.5720997 61.2110452,22.7028035 63.9418839,22.7028035 C65.208671,22.7028035 66.3761548,22.2111977 67.1477677,21.2823343 L67.1866839,21.2823343 L67.1866839,22.4656469 L68.7701677,22.4656469 L68.7701677,9.58754956 L67.1866839,9.58754956 L67.1866839,9.58754956 Z M64.1606194,21.3552106 C62.1812645,21.3552106 61.1130839,19.7716962 61.1130839,18.0943073 C61.1130839,16.4935003 62.3006968,15.0174475 64.1391484,15.0174475 C66.0983742,15.0174475 67.2658581,16.4020962 67.2658581,18.1128352 C67.2658581,19.8433372 66.1976774,21.3552106 64.1606194,21.3552106 L64.1606194,21.3552106 Z" id="Fill-4" fill="#36588F" sketch:type="MSShapeGroup"></path>
                <path d="M51.8805677,9.58754956 L51.8805677,15.1273795 L51.8403097,15.1273795 C51.0874839,14.217044 49.9012129,13.6698545 48.6545548,13.6698545 C45.864671,13.6698545 44.1832258,15.7647378 44.1832258,18.2042393 C44.1832258,20.5720997 45.904929,22.7028035 48.6344258,22.7028035 C49.9012129,22.7028035 51.0686968,22.2111977 51.8403097,21.2823343 L51.8805677,21.2823343 L51.8805677,22.4656469 L53.4627097,22.4656469 L53.4627097,9.58754956 L51.8805677,9.58754956 L51.8805677,9.58754956 Z M48.8518194,21.3552106 C46.8738065,21.3552106 45.8056258,19.7716962 45.8056258,18.0943073 C45.8056258,16.4935003 46.9932387,15.0174475 48.8330323,15.0174475 C50.7922581,15.0174475 51.9597419,16.4020962 51.9597419,18.1128352 C51.9597419,19.8433372 50.8902194,21.3552106 48.8518194,21.3552106 L48.8518194,21.3552106 Z" id="Fill-5" fill="#36588F" sketch:type="MSShapeGroup"></path>
                <path d="M93.184,14.1515789 L93.2296258,14.1515789 C93.9515871,13.2461842 94.8936258,12.7409912 96.1644387,12.7409912 C99.0106839,12.7409912 99.6682323,14.6370088 99.6682323,16.8529408 L99.6682323,22.4779988 L97.9170065,22.4779988 L97.9170065,17.1357994 C97.9170065,15.604163 97.7841548,14.2331015 95.7470968,14.2331015 C93.3396645,14.2331015 93.184,16.2884587 93.184,17.9831402 L93.184,22.4779988 L91.4327742,22.4779988 L91.4327742,13.0028516 L93.184,13.0028516 L93.184,14.1515789" id="Fill-6" fill="#EB8B2D" sketch:type="MSShapeGroup"></path>
                <path d="M113.480774,18.0844258 C113.504929,19.8371613 114.861626,21.247749 116.855742,21.247749 C118.34529,21.247749 119.307458,20.4214065 119.986477,19.2936774 L121.474684,20.0792587 C120.491045,21.772705 118.827045,22.7398592 116.72289,22.7398592 C113.656568,22.7398592 111.686606,20.5819812 111.686606,17.8620915 C111.686606,15.059444 113.459303,12.7409912 116.679948,12.7409912 C119.986477,12.7409912 121.739045,15.2607801 121.563252,18.0844258 L113.480774,18.0844258 L113.480774,18.0844258 Z M119.7248,16.712129 C119.483252,15.3423026 118.235252,14.2331015 116.701419,14.2331015 C115.1904,14.2331015 113.789419,15.3423026 113.570684,16.712129 L119.7248,16.712129 L119.7248,16.712129 Z" id="Fill-7" fill="#EB8B2D" sketch:type="MSShapeGroup"></path>
                <path d="M134.716903,22.4779988 L132.964335,22.4779988 L132.964335,14.4949619 L131.890787,14.4949619 L131.890787,13.0028516 L132.964335,13.0028516 L132.964335,9.59743109 L134.716903,9.59743109 L134.716903,13.0028516 L137.16191,13.0028516 L136.556697,14.4949619 L134.716903,14.4949619 L134.716903,22.4779988" id="Fill-8" fill="#EB8B2D" sketch:type="MSShapeGroup"></path>
                <path d="M141.352774,9.43562111 C141.352774,10.0803906 140.782452,10.5843484 140.103432,10.5843484 C139.424413,10.5843484 138.855432,10.0803906 138.855432,9.43562111 C138.855432,8.81184985 139.424413,8.28689384 140.103432,8.28689384 C140.782452,8.28689384 141.352774,8.81184985 141.352774,9.43562111 L141.352774,9.43562111 Z M139.227148,13.0028516 L140.981058,13.0028516 L140.981058,22.4779988 L139.227148,22.4779988 L139.227148,13.0028516 Z" id="Fill-9" fill="#EB8B2D" sketch:type="MSShapeGroup"></path>
                <path d="M166.704619,22.4779988 L164.952052,22.4779988 L164.952052,21.1686968 L164.907768,21.1686968 C164.010013,22.2161384 162.804955,22.7398592 161.361032,22.7398592 C158.337652,22.7398592 156.432103,20.3818804 156.432103,17.7620411 C156.432103,15.059444 158.29471,12.7409912 161.383845,12.7409912 C162.784826,12.7409912 164.054297,13.3462346 164.907768,14.3541501 L164.952052,14.3541501 L164.952052,13.0028516 L166.704619,13.0028516 L166.704619,22.4779988 L166.704619,22.4779988 Z M158.227613,17.6397572 C158.227613,19.4937783 159.4112,21.247749 161.601239,21.247749 C163.85569,21.247749 165.039277,19.5765361 165.039277,17.6595202 C165.039277,15.765973 163.746994,14.2331015 161.578426,14.2331015 C159.54271,14.2331015 158.227613,15.8672587 158.227613,17.6397572 L158.227613,17.6397572 Z" id="Fill-10" fill="#EB8B2D" sketch:type="MSShapeGroup"></path>
                <path d="M177.79169,15.8252622 L177.748748,15.8252622 C176.938219,14.877871 175.930426,14.2331015 174.550916,14.2331015 C172.426632,14.2331015 170.914271,15.8462604 170.914271,17.7398076 C170.914271,19.6160622 172.316594,21.247749 174.46369,21.247749 C175.930426,21.247749 176.95969,20.6437408 177.814503,19.6160622 L177.857445,19.6160622 L177.857445,21.772705 C176.849652,22.3977114 175.821729,22.7398592 174.592516,22.7398592 C171.483252,22.7398592 169.118761,20.6042147 169.118761,17.7398076 C169.118761,14.9173971 171.594632,12.7409912 174.615329,12.7409912 C175.731819,12.7409912 176.873806,13.0843742 177.79169,13.6896176 L177.79169,15.8252622" id="Fill-11" fill="#EB8B2D" sketch:type="MSShapeGroup"></path>
                <path d="M182.939355,9.43562111 C182.939355,10.0803906 182.369032,10.5843484 181.692697,10.5843484 C181.012335,10.5843484 180.443355,10.0803906 180.443355,9.43562111 C180.443355,8.81184985 181.012335,8.28689384 181.692697,8.28689384 C182.369032,8.28689384 182.939355,8.81184985 182.939355,9.43562111 L182.939355,9.43562111 Z M180.816413,13.0028516 L182.568981,13.0028516 L182.568981,22.4779988 L180.816413,22.4779988 L180.816413,13.0028516 Z" id="Fill-12" fill="#EB8B2D" sketch:type="MSShapeGroup"></path>
                <path d="M185.173677,17.7620411 C185.173677,14.9791566 187.562323,12.7409912 190.584361,12.7409912 C193.605058,12.7409912 195.993703,14.9791566 195.993703,17.7620411 C195.993703,20.5424551 193.584929,22.7398592 190.584361,22.7398592 C187.583794,22.7398592 185.173677,20.5424551 185.173677,17.7620411 L185.173677,17.7620411 Z M186.926245,17.7398076 C186.926245,19.6765865 188.415794,21.247749 190.584361,21.247749 C192.752929,21.247749 194.241135,19.6765865 194.241135,17.7398076 C194.241135,15.8252622 192.752929,14.2331015 190.584361,14.2331015 C188.415794,14.2331015 186.926245,15.8252622 186.926245,17.7398076 L186.926245,17.7398076 Z" id="Fill-13" fill="#EB8B2D" sketch:type="MSShapeGroup"></path>
                <path d="M200.253006,14.1515789 L200.29729,14.1515789 C201.020594,13.2461842 201.96129,12.7409912 203.230761,12.7409912 C206.077006,12.7409912 206.735897,14.6370088 206.735897,16.8529408 L206.735897,22.4779988 L204.983329,22.4779988 L204.983329,17.1357994 C204.983329,15.604163 204.851819,14.2331015 202.816103,14.2331015 C200.407329,14.2331015 200.253006,16.2884587 200.253006,17.9831402 L200.253006,22.4779988 L198.501781,22.4779988 L198.501781,13.0028516 L200.253006,13.0028516 L200.253006,14.1515789" id="Fill-14" fill="#EB8B2D" sketch:type="MSShapeGroup"></path>
                <path d="M152.073497,13.0028516 L152.073497,14.3541501 L152.030555,14.3541501 C151.198555,13.3252364 149.950555,12.7409912 148.526761,12.7409912 C145.483252,12.7409912 143.556232,15.1199683 143.556232,17.7818041 C143.556232,20.4214065 145.460439,22.7398592 148.461006,22.7398592 C149.840516,22.7398592 151.198555,22.1568493 152.030555,21.1686968 L152.073497,21.1686968 L152.073497,22.2964258 C152.073497,24.4333056 151.483045,26.2687988 148.766968,26.2687988 C148.660955,26.2687988 148.562994,26.2527413 148.459665,26.244095 L148.459665,27.747322 C148.569703,27.7522628 148.6784,27.7609091 148.788439,27.7609091 C150.323613,27.7609091 151.811819,27.2149548 152.775329,26.0872258 C153.826065,24.8359777 153.826065,23.5266757 153.826065,22.0135672 L153.826065,13.0028516 L152.073497,13.0028516 L152.073497,13.0028516 Z M148.722684,21.247749 C146.532645,21.247749 145.351742,19.4937783 145.351742,17.6397572 C145.351742,15.8672587 146.665497,14.2331015 148.701213,14.2331015 C150.871123,14.2331015 152.162065,15.765973 152.162065,17.6595202 C152.162065,19.5765361 150.979819,21.247749 148.722684,21.247749 L148.722684,21.247749 Z" id="Fill-15" fill="#EB8B2D" sketch:type="MSShapeGroup"></path>
                <path d="M86.1536,9.59990147 L87.9920516,9.59990147 L87.9920516,22.4779988 L86.1536,22.4779988 L86.1536,9.59990147 Z" id="Fill-16" fill="#EB8B2D" sketch:type="MSShapeGroup"></path>
                <path d="M195.240877,7.43090674 C195.240877,7.43090674 195.136206,7.50378299 194.953703,7.63347801 C194.76449,7.75946745 194.529652,7.94721642 194.179406,8.16337478 C194.003613,8.27083636 193.8144,8.38694428 193.61311,8.50922815 C193.417187,8.63892317 193.193084,8.74391437 192.968981,8.86125748 C192.73951,8.97242463 192.516748,9.1082956 192.261781,9.20217009 C192.013523,9.30345572 191.761239,9.40844692 191.508955,9.51220293 C191.249961,9.59619589 190.988284,9.67895367 190.731974,9.75924106 C190.477006,9.85064516 190.213987,9.89264164 189.964387,9.95563636 C189.714787,10.0087496 189.475923,10.0742147 189.243768,10.1013889 C189.011613,10.1335038 188.794219,10.1656188 188.591587,10.1964985 C188.187665,10.2557877 187.849497,10.2594933 187.616,10.2817267 C187.379819,10.3002545 187.242942,10.3113713 187.242942,10.3113713 L187.175845,9.52579003 C187.175845,9.52579003 187.301987,9.50726217 187.523406,9.4763824 C187.742142,9.43932669 188.064206,9.41462287 188.433239,9.33557067 C188.617084,9.29357419 188.818374,9.25157771 189.029058,9.20587566 C189.243768,9.17005513 189.457135,9.09347331 189.681239,9.02800821 C189.902658,8.95636716 190.140181,8.90448915 190.3616,8.8056739 C190.587045,8.71797537 190.816516,8.62657126 191.047329,8.53640235 C191.264723,8.42770557 191.4848,8.31777361 191.700852,8.21154721 C191.922271,8.11273196 192.114168,7.97562581 192.312774,7.86198827 C192.507355,7.74340997 192.703277,7.63718358 192.86431,7.51119413 C193.03071,7.39261584 193.187716,7.28144868 193.332645,7.17645748 C193.623845,6.97265103 193.873445,6.74661114 194.043871,6.61321056 C194.215639,6.47363402 194.314942,6.39334663 194.314942,6.39334663 L195.240877,7.43090674" id="Fill-17" fill="#EB8B2D" sketch:type="MSShapeGroup"></path>
                <path d="M128.017961,16.9344633 C126.814245,16.4700317 125.632,16.1476469 125.632,15.2817783 C125.632,14.6765349 126.289548,14.2331015 126.901471,14.2331015 C127.537548,14.2331015 128.064929,14.6962979 128.303794,15.2002557 L129.771871,14.4949619 C129.311587,13.5068094 128.216568,12.7409912 127.034323,12.7409912 C125.370323,12.7409912 123.968,13.8291941 123.968,15.4213548 C123.968,18.4055754 128.611097,17.6805185 128.611097,19.7964 C128.611097,20.6635038 127.889135,21.247749 126.947097,21.247749 C126.910865,21.247749 126.881342,21.2428082 126.847794,21.241573 L126.847794,22.7349185 C126.874632,22.7349185 126.898787,22.7398592 126.925626,22.7398592 C128.829832,22.7398592 130.406606,21.4503202 130.406606,19.6555883 C130.406606,18.0634276 129.224361,17.398895 128.017961,16.9344633" id="Fill-18" fill="#EB8B2D" sketch:type="MSShapeGroup"></path>
                <path d="M106.2464,22.7398592 L111.101523,13.0028516 L109.128877,13.0028516 L106.063897,19.3739648 L102.998916,13.0028516 L101.006142,13.0028516 L105.881394,22.7398592 L106.2464,22.7398592" id="Fill-19" fill="#EB8B2D" sketch:type="MSShapeGroup"></path>
                <path d="M14.9424516,17.4001302 L15.3101419,14.4974323 L15.9824516,14.5814252 L12.6155355,32.4756317 C12.5967484,32.5793877 12.4907355,32.6497935 12.3780129,32.6325009 C12.2666323,32.6164434 12.1901419,32.5188633 12.2075871,32.4163425 L15.3114839,14.4838452 L15.9851355,14.5678381 L15.6416,17.4717713 C15.621471,17.6508739 15.4470194,17.7780985 15.2537806,17.7595707 C15.0605419,17.7398076 14.9209806,17.580468 14.9424516,17.4026006 L14.9424516,17.4001302" id="Fill-20" fill="#36588F" sketch:type="MSShapeGroup"></path>
                <path d="M15.7999484,14.6135402 L15.4939871,14.4517302 L22.4787613,3.2905478 L22.7833806,3.45235777 L15.7999484,14.6135402" id="Fill-21" fill="#36588F" sketch:type="MSShapeGroup"></path>
                <path d="M23.3000258,3.76856657 C23.5187613,3.41777243 23.3872516,2.97186862 23.0074839,2.77053255 C22.6277161,2.56796129 22.1419355,2.68900997 21.9218581,3.03856891 C21.7031226,3.38812786 21.8346323,3.83526686 22.2144,4.03783812 C22.5941677,4.23917419 23.0799484,4.11812551 23.3000258,3.76856657" id="Fill-22" fill="#36588F" sketch:type="MSShapeGroup"></path>
                <path d="M15.4711742,14.5332528 L15.4470194,1.64650909 L15.7999484,1.6452739 L15.8227613,14.5332528 L15.4711742,14.5332528" id="Fill-23" fill="#36588F" sketch:type="MSShapeGroup"></path>
                <path d="M16.4185806,1.68109443 C16.4172387,1.2771871 16.0602839,0.951096774 15.621471,0.951096774 C15.184,0.952331965 14.8283871,1.27965748 14.829729,1.68356481 C14.829729,2.08747214 15.1866839,2.41479765 15.6254968,2.41356246 C16.0629677,2.41232727 16.4185806,2.08500176 16.4185806,1.68109443" id="Fill-24" fill="#36588F" sketch:type="MSShapeGroup"></path>
                <path d="M15.4939871,14.6147754 L8.4635871,3.45235777 L8.76820645,3.28931261 L15.7999484,14.4517302 L15.4939871,14.6147754" id="Fill-25" fill="#36588F" sketch:type="MSShapeGroup"></path>
                <path d="M9.32242581,3.03609853 C9.10234839,2.68653959 8.61656774,2.5667261 8.2368,2.77053255 C7.85837419,2.97310381 7.72820645,3.42024282 7.94828387,3.76980176 C8.16836129,4.1193607 8.65414194,4.237939 9.03390968,4.03536774 C9.41367742,3.83279648 9.54250323,3.38565748 9.32242581,3.03609853" id="Fill-26" fill="#36588F" sketch:type="MSShapeGroup"></path>
                <path d="M15.5597419,14.6728293 L3.39509677,8.23501584 L3.56954839,7.95462757 L15.7341935,14.3924411 L15.5597419,14.6728293" id="Fill-27" fill="#36588F" sketch:type="MSShapeGroup"></path>
                <path d="M3.91308387,7.47907918 C3.53197419,7.27774311 3.04619355,7.39879179 2.82745806,7.74958592 C2.61006452,8.09914487 2.74023226,8.54628387 3.12134194,8.74761994 C3.50110968,8.94895601 3.98689032,8.82790733 4.20562581,8.47834839 C4.42436129,8.12755425 4.29285161,7.68041525 3.91308387,7.47907918" id="Fill-28" fill="#36588F" sketch:type="MSShapeGroup"></path>
                <path d="M1.60629677,14.7086499 L1.60629677,14.3837947 L15.6469677,14.3714428 L15.6469677,14.6950628 L1.60629677,14.7086499" id="Fill-29" fill="#36588F" sketch:type="MSShapeGroup"></path>
                <path d="M1.6452129,13.8143718 C1.20774194,13.815607 0.852129032,14.1429326 0.852129032,14.5468399 C0.852129032,14.9507472 1.20908387,15.2768375 1.64655484,15.2768375 C2.08536774,15.2768375 2.44098065,14.949512 2.44098065,14.5456047 C2.43963871,14.1416974 2.08402581,13.8143718 1.6452129,13.8143718" id="Fill-30" fill="#36588F" sketch:type="MSShapeGroup"></path>
                <path d="M3.56954839,21.1365818 L3.39375484,20.8561935 L15.5584,14.3924411 L15.7341935,14.6728293 L3.56954839,21.1365818" id="Fill-31" fill="#36588F" sketch:type="MSShapeGroup"></path>
                <path d="M3.11865806,20.3460598 C2.73889032,20.5473959 2.60872258,20.9945349 2.82745806,21.3440938 C3.04753548,21.6936528 3.53331613,21.8134663 3.91308387,21.6121302 C4.29285161,21.4095589 4.42301935,20.9624199 4.20428387,20.612861 C3.98420645,20.2633021 3.49842581,20.1434886 3.11865806,20.3460598" id="Fill-32" fill="#36588F" sketch:type="MSShapeGroup"></path>
                <path d="M8.76820645,25.803132 L8.4635871,25.641322 L15.4939871,14.4517302 L15.7999484,14.6147754 L8.76820645,25.803132" id="Fill-33" fill="#36588F" sketch:type="MSShapeGroup"></path>
                <path d="M7.94694194,25.323878 C7.72820645,25.673437 7.85837419,26.120576 8.2368,26.3231472 C8.61656774,26.5257185 9.10234839,26.405905 9.32242581,26.056346 C9.54250323,25.7067871 9.41233548,25.2596481 9.03256774,25.0570768 C8.6528,24.8557408 8.16701935,24.9743191 7.94694194,25.323878" id="Fill-34" fill="#36588F" sketch:type="MSShapeGroup"></path>
                <path d="M15.4872774,14.4665525 L19.365471,6.75772786 L19.5600516,6.83925044 L15.8066581,14.5999531 L15.4872774,14.4665525" id="Fill-35" fill="#36588F" sketch:type="MSShapeGroup"></path>
                <path d="M19.9331097,7.02205865 C20.0552258,6.77749091 19.9371355,6.4884563 19.6700903,6.37728915 C19.4043871,6.26612199 19.0903742,6.37481877 18.9696,6.61938651 C18.8488258,6.86518944 18.9669161,7.15298886 19.2326194,7.2653912 C19.4996645,7.37655836 19.8123355,7.26786158 19.9331097,7.02205865" id="Fill-36" fill="#36588F" sketch:type="MSShapeGroup"></path>
                <path d="M15.4725161,14.5493103 L14.6311226,6.07837302 L14.8431484,6.05860997 L15.8227613,14.5171953 L15.4725161,14.5493103" id="Fill-37" fill="#36588F" sketch:type="MSShapeGroup"></path>
                <path d="M15.2658581,6.04502287 C15.2376774,5.77698651 14.9786839,5.58182639 14.6874839,5.6077654 C14.3962839,5.6337044 14.1842581,5.87333138 14.2124387,6.14013255 C14.2419613,6.40816891 14.5009548,6.60456422 14.7921548,6.57739003 C15.0833548,6.55145103 15.2953806,6.31305924 15.2658581,6.04502287" id="Fill-38" fill="#36588F" sketch:type="MSShapeGroup"></path>
                <path d="M15.5033806,14.6271273 L10.1597935,7.66559296 L10.3329032,7.55072023 L15.7905548,14.4381431 L15.5033806,14.6271273" id="Fill-39" fill="#36588F" sketch:type="MSShapeGroup"></path>
                <path d="M10.6925419,7.3444434 C10.5207742,7.12457947 10.1906581,7.07517185 9.95313548,7.23204106 C9.7156129,7.38891026 9.66059355,7.69400235 9.83236129,7.91263109 C10.0027871,8.13125982 10.3329032,8.18066745 10.5704258,8.02379824 C10.8079484,7.86692903 10.8629677,7.56183695 10.6925419,7.3444434" id="Fill-40" fill="#36588F" sketch:type="MSShapeGroup"></path>
                <path d="M15.5745032,14.6802405 L7.14849032,11.1006581 L7.23705806,10.9215554 L15.7194323,14.3850299 L15.5745032,14.6802405" id="Fill-41" fill="#36588F" sketch:type="MSShapeGroup"></path>
                <path d="M7.43566452,10.5781724 C7.16861935,10.4670053 6.85460645,10.5757021 6.73517419,10.8202698 C6.6144,11.0660727 6.73249032,11.3551073 6.99819355,11.4662745 C7.26523871,11.5762065 7.57925161,11.4675097 7.70002581,11.2229419 C7.81945806,10.977139 7.70136774,10.6893396 7.43566452,10.5781724" id="Fill-42" fill="#36588F" sketch:type="MSShapeGroup"></path>
                <path d="M15.6644129,14.6950628 L6.41042581,15.4608809 L6.38895484,15.2644856 L15.6295226,14.3714428 L15.6644129,14.6950628" id="Fill-43" fill="#36588F" sketch:type="MSShapeGroup"></path>
                <path d="M6.37553548,14.8754006 C6.08433548,14.9013396 5.87096774,15.1397314 5.89914839,15.4077677 C5.92732903,15.6758041 6.18632258,15.8709642 6.47752258,15.8450252 C6.76872258,15.8190862 6.98209032,15.5806944 6.95390968,15.3126581 C6.9243871,15.0446217 6.66539355,14.8494616 6.37553548,14.8754006" id="Fill-44" fill="#36588F" sketch:type="MSShapeGroup"></path>
                <path d="M15.7489548,14.6654182 L8.1348129,19.5765361 L8.01135484,19.4171965 L15.5449806,14.4010874 L15.7489548,14.6654182" id="Fill-45" fill="#36588F" sketch:type="MSShapeGroup"></path>
                <path d="M7.78859355,19.0849302 C7.54972903,19.2417994 7.49336774,19.5456563 7.66379355,19.7655202 C7.83287742,19.984149 8.16433548,20.036027 8.40185806,19.8791578 C8.64072258,19.7235238 8.69574194,19.4184317 8.52665806,19.1998029 C8.35623226,18.979939 8.02611613,18.9292962 7.78859355,19.0849302" id="Fill-46" fill="#36588F" sketch:type="MSShapeGroup"></path>
                <path d="M15.8066581,14.5999531 L11.8694194,22.3483038 L11.6748387,22.2667812 L15.4872774,14.4653173 L15.8066581,14.5999531" id="Fill-47" fill="#36588F" sketch:type="MSShapeGroup"></path>
                <path d="M11.3017806,22.0815026 C11.1796645,22.3260704 11.2964129,22.6163402 11.5621161,22.7275073 C11.8278194,22.8399097 12.1418323,22.7324481 12.2639484,22.4891155 C12.3860645,22.2433126 12.2706581,21.954278 12.0036129,21.8418757 C11.7379097,21.7294733 11.4238968,21.8369349 11.3017806,22.0815026" id="Fill-48" fill="#36588F" sketch:type="MSShapeGroup"></path>
                <path d="M15.4980129,14.4937267 L17.2385032,8.56110616 L17.7269677,8.68956598 L15.7959226,14.5715437 L15.4980129,14.4937267" id="Fill-49" fill="#36588F" sketch:type="MSShapeGroup"></path>
                <path d="M18.1792,8.84396481 C18.2905806,8.48452434 18.0637935,8.11026158 17.6746323,8.00774076 C17.284129,7.90521994 16.8775226,8.11273196 16.7661419,8.47217243 C16.6534194,8.83037771 16.8802065,9.20587566 17.2707097,9.30716129 C17.659871,9.4109173 18.0678194,9.20217009 18.1792,8.84396481" id="Fill-50" fill="#36588F" sketch:type="MSShapeGroup"></path>
                <path d="M15.496671,14.5678381 L13.7736258,8.62533607 L14.2661161,8.51169853 L15.7972645,14.4986674 L15.496671,14.5678381" id="Fill-51" fill="#36588F" sketch:type="MSShapeGroup"></path>
                <path d="M14.7411613,8.43635191 C14.6418581,8.07444106 14.2433032,7.85457713 13.8501161,7.94598123 C13.4555871,8.03738534 13.2167226,8.40423695 13.3160258,8.7661478 C13.415329,9.12805865 13.8138839,9.34792258 14.207071,9.25775367 C14.6002581,9.16634956 14.8404645,8.79949795 14.7411613,8.43635191" id="Fill-52" fill="#36588F" sketch:type="MSShapeGroup"></path>
                <path d="M15.5355871,14.632068 L10.8066065,10.2730804 L11.170271,9.94822522 L15.7583484,14.4332023 L15.5355871,14.632068" id="Fill-53" fill="#36588F" sketch:type="MSShapeGroup"></path>
                <path d="M11.5419871,9.66413138 C11.2588387,9.39609501 10.794529,9.38991906 10.503329,9.64930909 C10.2107871,9.90993431 10.2040774,10.3385455 10.4872258,10.6065818 C10.7690323,10.8746182 11.2346839,10.8807941 11.5258839,10.6201689 C11.8170839,10.3607789 11.8237935,9.93216774 11.5419871,9.66413138" id="Fill-54" fill="#36588F" sketch:type="MSShapeGroup"></path>
                <path d="M15.6040258,14.6703589 L9.13052903,13.0695519 L9.27009032,12.6199425 L15.6885677,14.3961466 L15.6040258,14.6703589" id="Fill-55" fill="#36588F" sketch:type="MSShapeGroup"></path>
                <path d="M9.43783226,12.2036833 C9.04732903,12.1011625 8.64072258,12.3099097 8.52934194,12.6693501 C8.41796129,13.0287906 8.64474839,13.4018182 9.03525161,13.504339 C9.42575484,13.6068598 9.83236129,13.3981126 9.9424,13.0386721 C10.0537806,12.6804669 9.82833548,12.3049689 9.43783226,12.2036833" id="Fill-56" fill="#36588F" sketch:type="MSShapeGroup"></path>
                <path d="M15.6845419,14.6715941 L9.20030968,16.2600493 L9.07685161,15.8067343 L15.6093935,14.3949114 L15.6845419,14.6715941" id="Fill-57" fill="#36588F" sketch:type="MSShapeGroup"></path>
                <path d="M8.99633548,15.3694768 C8.60314839,15.4596457 8.36294194,15.8277326 8.46224516,16.1896434 C8.56020645,16.5515543 8.96010323,16.7726534 9.35329032,16.6812493 C9.74647742,16.5910804 9.98534194,16.2229935 9.88738065,15.8610827 C9.78807742,15.4991718 9.38952258,15.2780727 8.99633548,15.3694768" id="Fill-58" fill="#36588F" sketch:type="MSShapeGroup"></path>
                <path d="M15.7543226,14.6357736 L10.9917935,18.9922909 L10.6402065,18.6563191 L15.5396129,14.430732 L15.7543226,14.6357736" id="Fill-59" fill="#36588F" sketch:type="MSShapeGroup"></path>
                <path d="M10.3329032,18.3141713 C10.0403613,18.5735613 10.0323097,19.0021724 10.3141161,19.2702088 C10.5959226,19.5394804 11.0615742,19.5468915 11.3527742,19.2875015 C11.6453161,19.0281114 11.6533677,18.5995003 11.3715613,18.3314639 C11.0897548,18.0621924 10.6241032,18.0547812 10.3329032,18.3141713" id="Fill-60" fill="#36588F" sketch:type="MSShapeGroup"></path>
                <path d="M15.7959226,14.5727789 L14.0312774,20.5338088 L13.5428129,20.4041138 L15.4980129,14.4937267 L15.7959226,14.5727789" id="Fill-61" fill="#36588F" sketch:type="MSShapeGroup"></path>
                <path d="M13.0919226,20.2484798 C12.9792,20.6079202 13.2046452,20.982183 13.5938065,21.085939 C13.9843097,21.189695 14.3909161,20.982183 14.5036387,20.6239777 C14.6163613,20.2645372 14.3909161,19.8902745 14.0017548,19.7865185 C13.6112516,19.6827625 13.2046452,19.8902745 13.0919226,20.2484798" id="Fill-62" fill="#36588F" sketch:type="MSShapeGroup"></path>
                <path d="M18.2100645,14.4924915 C18.2100645,13.2066581 17.0788129,12.1653924 15.6805161,12.1653924 C14.2822194,12.1653924 13.1509677,13.2066581 13.1509677,14.4924915 C13.1509677,15.7807953 14.2822194,16.8208258 15.6805161,16.8208258 C17.0788129,16.8208258 18.2100645,15.7807953 18.2100645,14.4924915" id="Fill-63" fill="#36588F" sketch:type="MSShapeGroup"></path>
                <path d="M16.3367226,17.0900974 C16.1931355,17.0900974 16.0602839,17.0023988 16.0200258,16.867763 L15.328929,14.6160106 C15.2792774,14.4542006 15.3812645,14.2849795 15.5570581,14.2405126 C15.7328516,14.1935754 15.9153548,14.288685 15.9650065,14.450495 L16.6561032,16.7022475 C16.7057548,16.8640575 16.6037677,17.0320434 16.4279742,17.0777455 C16.3971097,17.0851566 16.3675871,17.0900974 16.3367226,17.0900974" id="Fill-64" fill="#36588F" sketch:type="MSShapeGroup"></path>
                <path d="M17.4867613,16.5009114 C17.4022194,16.5009114 17.3190194,16.4725021 17.2546065,16.4144481 L15.4148129,14.7494111 C15.2846452,14.632068 15.2833032,14.4393783 15.4107871,14.3195648 C15.5396129,14.1997513 15.7489548,14.1985161 15.8791226,14.3158592 L17.7175742,15.979661 C17.8477419,16.0970041 17.8504258,16.2896938 17.7229419,16.4095073 C17.6571871,16.4712669 17.5713032,16.5009114 17.4867613,16.5009114" id="Fill-65" fill="#36588F" sketch:type="MSShapeGroup"></path>
                <path d="M18.1617548,15.4621161 C18.1322323,15.4621161 18.1040516,15.4584106 18.075871,15.4509994 L15.5610839,14.8272282 C15.3839484,14.7839965 15.2792774,14.6160106 15.3275871,14.4542006 C15.3745548,14.2911554 15.5570581,14.1948106 15.7328516,14.2392774 L18.2476387,14.8630487 C18.4234323,14.9075155 18.5281032,15.0742663 18.4811355,15.2360762 C18.4408774,15.3719472 18.3066839,15.4621161 18.1617548,15.4621161" id="Fill-66" fill="#36588F" sketch:type="MSShapeGroup"></path>
                <path d="M15.6469677,14.8371097 C15.4993548,14.8371097 15.3638194,14.7457056 15.3262452,14.6073642 C15.2819613,14.4443191 15.3893161,14.2788035 15.5664516,14.2380422 L18.1000258,13.6525619 C18.2785032,13.6105654 18.4569806,13.7093806 18.5012645,13.873661 C18.5455484,14.0367062 18.4381935,14.2009865 18.2610581,14.242983 L15.7274839,14.8284633 C15.7006452,14.8346393 15.6738065,14.8371097 15.6469677,14.8371097" id="Fill-67" fill="#36588F" sketch:type="MSShapeGroup"></path>
                <path d="M15.6469677,14.8371097 C15.5597419,14.8371097 15.4711742,14.8049947 15.4067613,14.742 C15.2806194,14.6197161 15.287329,14.4270264 15.4201806,14.3109185 L17.3149935,12.668115 C17.4465032,12.5532422 17.6558452,12.558183 17.7819871,12.6804669 C17.9067871,12.8027507 17.9014194,12.9954405 17.7685677,13.1115484 L15.8737548,14.7543519 C15.8106839,14.8099355 15.7288258,14.8371097 15.6469677,14.8371097" id="Fill-68" fill="#36588F" sketch:type="MSShapeGroup"></path>
                <path d="M15.6469677,14.8371097 C15.6147613,14.8371097 15.5812129,14.8334041 15.5490065,14.8235226 C15.3745548,14.774115 15.2765935,14.6036587 15.330271,14.4430839 L16.0965161,12.1777443 C16.1501935,12.0171695 16.3367226,11.9270006 16.5098323,11.9776434 C16.6842839,12.027051 16.7822452,12.1975073 16.7272258,12.3580821 L15.9636645,14.6234217 C15.9193806,14.7543519 15.787871,14.8371097 15.6469677,14.8371097" id="Fill-69" fill="#36588F" sketch:type="MSShapeGroup"></path>
                <path d="M15.6469677,14.8371097 C15.495329,14.8371097 15.3584516,14.7407648 15.3235613,14.5987179 L14.7747097,12.3160856 C14.7344516,12.1518053 14.8471742,11.9899953 15.0256516,11.9529396 C15.204129,11.9171191 15.3799226,12.0208751 15.4201806,12.1839202 L15.9703742,14.4665525 C16.0092903,14.6308328 15.8965677,14.793878 15.7194323,14.8309337 C15.6939355,14.8346393 15.6697806,14.8371097 15.6469677,14.8371097" id="Fill-70" fill="#36588F" sketch:type="MSShapeGroup"></path>
                <path d="M15.6469677,14.8371097 C15.5584,14.8371097 15.4698323,14.8037595 15.4040774,14.7395296 L13.7051871,13.0460833 C13.581729,12.9225642 13.5897806,12.7298745 13.7239742,12.6150018 C13.8581677,12.5013642 14.0675097,12.5087754 14.1909677,12.6322944 L15.8898581,14.326976 C16.0146581,14.450495 16.0052645,14.6431848 15.871071,14.7568223 C15.808,14.8111707 15.7274839,14.8371097 15.6469677,14.8371097" id="Fill-71" fill="#36588F" sketch:type="MSShapeGroup"></path>
                <path d="M15.6469677,14.8371097 C15.6161032,14.8371097 15.5838968,14.8334041 15.5516903,14.8247578 L13.1791484,14.1701067 C13.0033548,14.1219343 12.9040516,13.951478 12.9563871,13.7909032 C13.0087226,13.6303284 13.1939097,13.5389243 13.3683613,13.5870968 L15.7422452,14.2417478 C15.9166968,14.2899202 16.016,14.4591413 15.9636645,14.6197161 C15.9207226,14.7518815 15.7892129,14.8371097 15.6469677,14.8371097" id="Fill-72" fill="#36588F" sketch:type="MSShapeGroup"></path>
                <path d="M13.2529548,15.3929455 C13.1053419,15.3929455 12.9711484,15.3015413 12.9335742,15.1632 C12.8879484,15.0001548 12.9953032,14.8346393 13.1724387,14.793878 L15.5664516,14.2380422 C15.7435871,14.1960457 15.9234065,14.2960962 15.9676903,14.4579062 C16.0119742,14.6209513 15.9046194,14.7864669 15.7274839,14.8284633 L13.3348129,15.3842991 C13.3066323,15.3904751 13.2797935,15.3929455 13.2529548,15.3929455" id="Fill-73" fill="#36588F" sketch:type="MSShapeGroup"></path>
                <path d="M13.8930581,16.4502686 C13.8085161,16.4502686 13.7239742,16.420624 13.6595613,16.3613349 C13.5307355,16.2427566 13.5307355,16.0500669 13.6595613,15.9314886 L15.413471,14.3170944 C15.5422968,14.1985161 15.7516387,14.1985161 15.8804645,14.3183296 C16.0106323,14.4369079 16.0106323,14.6295977 15.8804645,14.748176 L14.1278968,16.3613349 C14.0621419,16.420624 13.9776,16.4502686 13.8930581,16.4502686" id="Fill-74" fill="#36588F" sketch:type="MSShapeGroup"></path>
                <path d="M15.621471,17.4804176 L15.6187871,17.4804176 C15.4242065,17.4779472 15.2685419,17.3321947 15.2698839,17.1530921 L15.2953806,14.5295472 C15.2967226,14.3504446 15.4497032,14.2046921 15.6496516,14.2096328 C15.8442323,14.210868 16.0012387,14.3566205 15.9998968,14.5357232 L15.9744,17.1580328 C15.9730581,17.3359003 15.8160516,17.4804176 15.621471,17.4804176" id="Fill-75" fill="#36588F" sketch:type="MSShapeGroup"></path>
                <path d="M17.056,17.1259179 C16.9338839,17.1259179 16.8144516,17.0678639 16.7500387,16.9628727 L15.3410065,14.6938276 C15.2443871,14.5381935 15.3034323,14.340563 15.4725161,14.2516293 C15.6416,14.1626956 15.8563097,14.217044 15.952929,14.372678 L17.3606194,16.6417232 C17.4572387,16.7973572 17.3981935,16.9949877 17.2304516,17.0839214 C17.1754323,17.1123308 17.1150452,17.1259179 17.056,17.1259179" id="Fill-76" fill="#36588F" sketch:type="MSShapeGroup"></path>
                <path d="M18.1040516,16.161234 C18.0450065,16.161234 17.9846194,16.1464117 17.9282581,16.1180023 L15.4711742,14.8136411 C15.3020903,14.7247073 15.2443871,14.5258416 15.3423484,14.3714428 C15.4389677,14.2158088 15.6536774,14.1626956 15.8227613,14.2516293 L18.2798452,15.5559906 C18.448929,15.6449243 18.5066323,15.84379 18.4100129,15.9981889 C18.3442581,16.1031801 18.2261677,16.161234 18.1040516,16.161234" id="Fill-77" fill="#36588F" sketch:type="MSShapeGroup"></path>
                <path d="M15.6469677,14.8568727 C15.453729,14.8568727 15.2967226,14.7135906 15.2953806,14.534488 C15.2940387,14.3553853 15.4510452,14.2096328 15.6442839,14.2096328 L18.4865032,14.1935754 L18.4878452,14.1935754 C18.6824258,14.1935754 18.8394323,14.3380927 18.8407742,14.5159601 C18.8421161,14.6950628 18.6851097,14.8408152 18.490529,14.8420504 L15.6483097,14.8568727 L15.6469677,14.8568727" id="Fill-78" fill="#36588F" sketch:type="MSShapeGroup"></path>
                <path d="M15.6469677,14.8568727 C15.5261935,14.8568727 15.4094452,14.800054 15.3436903,14.6975331 C15.2443871,14.5431343 15.3007484,14.3442686 15.4684903,14.2540997 L17.9255742,12.9200938 C18.0933161,12.8286897 18.3093677,12.8805677 18.407329,13.0337314 C18.5066323,13.1881302 18.4516129,13.3869959 18.283871,13.4784 L15.8254452,14.8124059 C15.7704258,14.8432856 15.7086968,14.8568727 15.6469677,14.8568727" id="Fill-79" fill="#36588F" sketch:type="MSShapeGroup"></path>
                <path d="M15.6469677,14.8568727 C15.5879226,14.8568727 15.5288774,14.8432856 15.4738581,14.8148762 C15.3047742,14.7271777 15.2443871,14.5295472 15.3410065,14.3739132 L16.7486968,12.0739883 C16.8439742,11.9171191 17.0586839,11.8615355 17.2277677,11.9504692 C17.3968516,12.0381677 17.4572387,12.2357982 17.3619613,12.3914323 L15.954271,14.6925924 C15.8885161,14.7975836 15.7704258,14.8568727 15.6469677,14.8568727" id="Fill-80" fill="#36588F" sketch:type="MSShapeGroup"></path>
                <path d="M15.6469677,14.8568727 C15.453729,14.8568727 15.2967226,14.7135906 15.2953806,14.5357232 L15.2698839,11.8825337 C15.2685419,11.7034311 15.4242065,11.5576786 15.6187871,11.5552082 L15.621471,11.5552082 C15.8160516,11.5552082 15.9730581,11.6984903 15.9744,11.8763578 L15.9998968,14.5307824 C16.0012387,14.7086499 15.8442323,14.8556375 15.6496516,14.8568727 L15.6469677,14.8568727" id="Fill-81" fill="#36588F" sketch:type="MSShapeGroup"></path>
                <path d="M15.6469677,14.8568727 C15.5261935,14.8568727 15.4081032,14.800054 15.3423484,14.6962979 L13.8850065,12.396373 C13.7870452,12.240739 13.8434065,12.0431085 14.0124903,11.9529396 C14.1802323,11.8627707 14.3949419,11.9146487 14.4929032,12.0690475 L15.9515871,14.3702076 C16.0495484,14.5246065 15.9918452,14.722237 15.8241032,14.8124059 C15.7690839,14.8432856 15.7073548,14.8568727 15.6469677,14.8568727" id="Fill-82" fill="#36588F" sketch:type="MSShapeGroup"></path>
                <path d="M15.6469677,14.8568727 C15.5865806,14.8568727 15.5261935,14.8432856 15.4711742,14.8136411 L12.9630968,13.4796352 C12.7953548,13.3894663 12.7376516,13.1918358 12.8356129,13.0362018 C12.9322323,12.8818029 13.1469419,12.8286897 13.3160258,12.9188587 L15.8227613,14.2516293 C15.9918452,14.3417982 16.0495484,14.5394287 15.9515871,14.6950628 C15.8871742,14.7988188 15.7677419,14.8568727 15.6469677,14.8568727" id="Fill-83" fill="#36588F" sketch:type="MSShapeGroup"></path>
                <path d="M15.6469677,14.8568727 L15.6442839,14.8568727 L12.7537548,14.8420504 C12.5605161,14.8408152 12.4035097,14.6950628 12.4048516,14.5159601 C12.4048516,14.3380927 12.5632,14.1935754 12.7564387,14.1935754 L12.7591226,14.1935754 L15.6483097,14.2096328 C15.8428903,14.2096328 15.9998968,14.3553853 15.9998968,14.534488 C15.9985548,14.7135906 15.8402065,14.8568727 15.6469677,14.8568727" id="Fill-84" fill="#36588F" sketch:type="MSShapeGroup"></path>
                <path d="M13.1402323,16.161234 C13.0167742,16.161234 12.8973419,16.1019449 12.832929,15.9969537 C12.7376516,15.8400845 12.7966968,15.642454 12.9671226,15.5547554 L15.4738581,14.2503941 C15.6429419,14.1626956 15.8576516,14.2182792 15.954271,14.3739132 C16.0495484,14.5295472 15.9891613,14.7271777 15.8200774,14.8148762 L13.3133419,16.1192375 C13.2583226,16.1476469 13.1979355,16.161234 13.1402323,16.161234" id="Fill-85" fill="#36588F" sketch:type="MSShapeGroup"></path>
                <path d="M14.1896258,17.1259179 C14.1278968,17.1259179 14.0661677,17.1123308 14.0098065,17.081451 C13.8434065,16.9900469 13.7870452,16.7924164 13.8863484,16.6380176 L15.3436903,14.3677372 C15.4429935,14.2145736 15.6590452,14.1626956 15.8267871,14.2540997 C15.9931871,14.3442686 16.0495484,14.5431343 15.9502452,14.6975331 L14.4929032,16.9678135 C14.4271484,17.0703343 14.3090581,17.1259179 14.1896258,17.1259179" id="Fill-86" fill="#36588F" sketch:type="MSShapeGroup"></path>
                <path d="M22.7780129,19.1664528 C22.7390968,19.1664528 22.7001806,19.1553361 22.6666323,19.1331026 L15.8334968,14.3665021 C15.7529806,14.3096833 15.7368774,14.2034569 15.7986065,14.1281103 C15.8589935,14.0527636 15.9757419,14.0391765 16.0562581,14.0959953 L22.8893935,18.8613607 C22.9712516,18.9181795 22.9873548,19.0244059 22.9256258,19.0997525 C22.8893935,19.1442194 22.8343742,19.1664528 22.7780129,19.1664528" id="Fill-87" fill="#36588F" sketch:type="MSShapeGroup"></path>
                <path d="M22.5552516,19.2417994 C22.7082323,19.349261 22.9256258,19.3208516 23.0410323,19.1800399 C23.1577806,19.0392282 23.1269161,18.8391273 22.9739355,18.7329009 C22.8209548,18.6254393 22.6035613,18.6538487 22.4881548,18.7946604 C22.3714065,18.9354721 22.402271,19.135573 22.5552516,19.2417994" id="Fill-88" fill="#36588F" sketch:type="MSShapeGroup"></path>
                <path d="M16.8520258,18.9120035 L15.5584,14.5332528 L15.9851355,14.4257912 L17.2801032,18.8057771 L16.8520258,18.9120035" id="Fill-89" fill="#36588F" sketch:type="MSShapeGroup"></path>
                <path d="M15.2953806,14.6221865 C15.2229161,14.3776188 15.3812645,14.1244047 15.6469677,14.0577044 C15.912671,13.9910041 16.1891097,14.1355214 16.2602323,14.3800891 C16.3340387,14.6258921 16.1756903,14.8791062 15.9099871,14.9458065 C15.6429419,15.0125067 15.3678452,14.8679894 15.2953806,14.6221865" id="Fill-90" fill="#36588F" sketch:type="MSShapeGroup"></path>
                <path d="M16.576929,18.9577056 C16.6493935,19.2035085 16.9244903,19.3480258 17.1915355,19.2813255 C17.4572387,19.21339 17.6142452,18.9614111 17.5431226,18.7156082 C17.4706581,18.4698053 17.1955613,18.325288 16.9285161,18.3919883 C16.661471,18.4599238 16.5044645,18.7119026 16.576929,18.9577056" id="Fill-91" fill="#36588F" sketch:type="MSShapeGroup"></path>
            </g>
        </g>
    </g>
</svg>